<svg width="51" height="56" viewBox="0 0 51 56" fill="none" xmlns="http://www.w3.org/2000/svg">
<path d="M33.0863 5.14035L35.5343 0.731826C35.5656 0.675337 35.5855 0.613244 35.5928 0.549095C35.6 0.484945 35.5946 0.419994 35.5767 0.357951C35.5588 0.295907 35.5289 0.237986 35.4886 0.187494C35.4483 0.137002 35.3984 0.0949286 35.3418 0.0636754C35.2852 0.0324223 35.223 0.0126016 35.1587 0.00534509C35.0945 -0.0019114 35.0294 0.00353847 34.9672 0.0213834C34.9051 0.0392283 34.8471 0.0691187 34.7965 0.109348C34.7459 0.149578 34.7037 0.199359 34.6724 0.255848L32.1989 4.71019C30.0874 3.7861 27.8069 3.309 25.5014 3.309C23.1958 3.309 20.9153 3.7861 18.8038 4.71019L16.3303 0.255848C16.267 0.141087 16.1607 0.0561002 16.0347 0.0195834C15.9087 -0.0169333 15.7733 -0.00198861 15.6584 0.06113C15.5434 0.124249 15.4582 0.230371 15.4217 0.356151C15.3851 0.481931 15.4 0.617065 15.4633 0.731826L17.9113 5.14035C15.5821 6.287 13.6142 8.05171 12.2234 10.241C10.8326 12.4302 10.0725 14.9595 10.0267 17.5514H40.976C40.9297 14.959 40.1689 12.4293 38.7772 10.24C37.3854 8.0507 35.4165 6.2863 33.0863 5.14035ZM18.3601 11.8982C18.1043 11.8982 17.8542 11.8225 17.6415 11.6806C17.4289 11.5386 17.2632 11.3369 17.1654 11.101C17.0676 10.865 17.0422 10.6054 17.0923 10.355C17.1423 10.1046 17.2657 9.8747 17.4468 9.69432C17.6279 9.51395 17.8585 9.39124 18.1094 9.34173C18.3604 9.29223 18.6204 9.31815 18.8566 9.41621C19.0928 9.51428 19.2945 9.68008 19.4363 9.89263C19.578 10.1052 19.6534 10.3549 19.6529 10.6103C19.6523 10.9521 19.5157 11.2797 19.2734 11.5211C19.031 11.7626 18.7025 11.8982 18.3601 11.8982ZM32.6452 11.8982C32.3894 11.8982 32.1393 11.8225 31.9266 11.6806C31.714 11.5386 31.5483 11.3369 31.4505 11.101C31.3527 10.865 31.3273 10.6054 31.3774 10.355C31.4275 10.1046 31.5508 9.8747 31.7319 9.69432C31.913 9.51395 32.1436 9.39124 32.3945 9.34173C32.6455 9.29223 32.9055 9.31815 33.1417 9.41621C33.3779 9.51428 33.5796 9.68008 33.7214 9.89263C33.8631 10.1052 33.9385 10.3549 33.938 10.6103C33.9374 10.9521 33.8008 11.2797 33.5585 11.5211C33.3161 11.7626 32.9876 11.8982 32.6452 11.8982ZM10.0216 41.162C10.0209 41.6534 10.1174 42.1401 10.3056 42.5942C10.4938 43.0484 10.7699 43.4609 11.1181 43.8083C11.4664 44.1557 11.8799 44.431 12.335 44.6185C12.7901 44.8061 13.2777 44.9021 13.7701 44.9011H16.2512V52.5371C16.2512 53.4555 16.6167 54.3363 17.2674 54.9857C17.918 55.6352 18.8004 56 19.7205 56C20.6406 56 21.523 55.6352 22.1736 54.9857C22.8243 54.3363 23.1898 53.4555 23.1898 52.5371V44.9011H27.8155V52.5371C27.8155 53.4552 28.1809 54.3356 28.8312 54.9848C29.4816 55.634 30.3637 55.9987 31.2835 55.9987C32.2032 55.9987 33.0853 55.634 33.7357 54.9848C34.3861 54.3356 34.7515 53.4552 34.7515 52.5371V44.9011H37.2352C37.7269 44.9014 38.2138 44.805 38.6681 44.6173C39.1224 44.4296 39.5352 44.1544 39.8829 43.8074C40.2306 43.4604 40.5063 43.0483 40.6943 42.5948C40.8823 42.1413 40.9789 41.6553 40.9786 41.1645V18.7732H10.0216V41.162ZM5.26073 18.1776C4.34093 18.1789 3.45923 18.5444 2.80907 19.1938C2.15891 19.8433 1.7934 20.7237 1.79272 21.6418V36.0713C1.79272 36.5259 1.88243 36.976 2.05671 37.396C2.23099 37.816 2.48644 38.1976 2.80848 38.5191C3.13051 38.8405 3.51282 39.0955 3.93358 39.2694C4.35434 39.4434 4.8053 39.5329 5.26073 39.5329C5.71615 39.5329 6.16711 39.4434 6.58787 39.2694C7.00863 39.0955 7.39094 38.8405 7.71297 38.5191C8.03501 38.1976 8.29046 37.816 8.46474 37.396C8.63902 36.976 8.72872 36.5259 8.72872 36.0713V21.6418C8.72738 20.7241 8.36156 19.8444 7.71148 19.1955C7.0614 18.5466 6.18008 18.1815 5.26073 18.1801V18.1776ZM45.7343 18.1776C44.8145 18.1789 43.9328 18.5444 43.2827 19.1938C42.6325 19.8433 42.267 20.7237 42.2663 21.6418V36.0713C42.2663 36.5259 42.356 36.976 42.5303 37.396C42.7046 37.816 42.9601 38.1976 43.2821 38.5191C43.6041 38.8405 43.9864 39.0955 44.4072 39.2694C44.8279 39.4434 45.2789 39.5329 45.7343 39.5329C46.1897 39.5329 46.6407 39.4434 47.0615 39.2694C47.4822 39.0955 47.8645 38.8405 48.1866 38.5191C48.5086 38.1976 48.7641 37.816 48.9383 37.396C49.1126 36.976 49.2023 36.5259 49.2023 36.0713V21.6418C49.201 20.7241 48.8352 19.8444 48.1851 19.1955C47.535 18.5466 46.6537 18.1815 45.7343 18.1801V18.1776Z" fill="#F9F9F9" fill-opacity="0.9"/>
</svg>
