<?xml version="1.0" encoding="utf-8"?>
<!-- Generator: Adobe Illustrator 23.1.0, SVG Export Plug-In . SVG Version: 6.00 Build 0)  -->
<svg version="1.1" id="Capa_1" xmlns="http://www.w3.org/2000/svg" xmlns:xlink="http://www.w3.org/1999/xlink" x="0px" y="0px"
	 viewBox="0 0 75 75" style="enable-background:new 0 0 75 75;" xml:space="preserve">
<style type="text/css">
	.st0{fill:#212121;fill-opacity:0.9;}
	.st1{fill:#F9F9F9;fill-opacity:0.9;}
</style>
<path class="st0" d="M10,0h55c5.5,0,10,4.5,10,10v55c0,5.5-4.5,10-10,10H10C4.5,75,0,70.5,0,65V10C0,4.5,4.5,0,10,0z"/>
<path class="st1" d="M22.3,37.6l3.6,6.3l-4.6,5.8l-6.3-11L22.3,37.6z M42.2,48.4v-4.9c1.6-0.7,2.7-2.3,2.7-4.2c0-1-0.4-2-1-2.7
	l3.6-2.1c1.8-1.1,2.5-3.4,1.4-5.2l-2.5-4.4c-0.5-0.9-1.3-1.5-2.3-1.8c-1-0.3-2-0.1-2.9,0.4l-14.7,8.6c-1.7,1-2.3,3.2-1.3,4.9
	l2.7,4.7c1,1.7,3.2,2.3,4.9,1.3l3.4-2c0.5,1.1,1.3,1.9,2.4,2.4v4.9c0,2,1.6,3.6,3.6,3.6h9.1v-3.6H42.2z"/>
</svg>
