<svg width="75" height="75" viewBox="0 0 75 75" fill="none" xmlns="http://www.w3.org/2000/svg">
<rect width="75" height="75" rx="10" fill="#212121" fill-opacity="0.9"/>
<path d="M57.0306 36.5031L45.7088 32.474L40.9762 26.5905C40.5647 26.0923 40.0463 25.6911 39.4587 25.416C38.8711 25.1409 38.229 24.9988 37.5791 25H25.8706C25.1546 24.9998 24.4493 25.173 23.8163 25.5045C23.1834 25.8361 22.6419 26.3159 22.2392 26.9022L18.2681 32.6769C17.441 33.8788 16.9991 35.2996 17 36.7539V48.1975C17 48.5821 17.1543 48.9508 17.4289 49.2227C17.7035 49.4946 18.0759 49.6474 18.4643 49.6474H21.6008C21.9193 50.8917 22.6478 51.9953 23.671 52.7836C24.6941 53.572 25.9536 54 27.25 54C28.5464 54 29.8059 53.572 30.829 52.7836C31.8522 51.9953 32.5807 50.8917 32.8992 49.6474H42.1008C42.4193 50.8917 43.1478 51.9953 44.171 52.7836C45.1941 53.572 46.4536 54 47.75 54C49.0464 54 50.3059 53.572 51.329 52.7836C52.3522 51.9953 53.0807 50.8917 53.3992 49.6474H56.5357C56.9241 49.6474 57.2965 49.4946 57.5711 49.2227C57.8457 48.9508 58 48.5821 58 48.1975V37.8674C58 37.5688 57.9068 37.2776 57.7333 37.0334C57.5598 36.7892 57.3144 36.604 57.0306 36.5031ZM27.25 51.0972C26.6708 51.0972 26.1046 50.9272 25.623 50.6085C25.1414 50.2899 24.766 49.837 24.5444 49.3072C24.3227 48.7774 24.2647 48.1943 24.3777 47.6318C24.4907 47.0693 24.7696 46.5527 25.1792 46.1471C25.5888 45.7416 26.1106 45.4654 26.6787 45.3536C27.2468 45.2417 27.8356 45.2991 28.3707 45.5186C28.9058 45.738 29.3632 46.1097 29.685 46.5866C30.0068 47.0634 30.1786 47.624 30.1786 48.1975C30.1774 48.9662 29.8685 49.7031 29.3195 50.2467C28.7706 50.7902 28.0263 51.0961 27.25 51.0972ZM47.75 51.0972C47.1708 51.0972 46.6046 50.9272 46.123 50.6085C45.6414 50.2899 45.266 49.837 45.0444 49.3072C44.8227 48.7774 44.7647 48.1943 44.8777 47.6318C44.9907 47.0693 45.2696 46.5527 45.6792 46.1471C46.0888 45.7416 46.6106 45.4654 47.1787 45.3536C47.7468 45.2417 48.3356 45.2991 48.8707 45.5186C49.4058 45.738 49.8632 46.1097 50.185 46.5866C50.5068 47.0634 50.6786 47.624 50.6786 48.1975C50.6778 48.9663 50.369 49.7034 49.82 50.2471C49.2709 50.7907 48.5265 51.0965 47.75 51.0972ZM55.0714 46.7477H53.3992C53.0807 45.5034 52.3522 44.3998 51.329 43.6114C50.3059 42.8231 49.0464 42.3951 47.75 42.3951C46.4536 42.3951 45.1941 42.8231 44.171 43.6114C43.1478 44.3998 42.4193 45.5034 42.1008 46.7477H32.8992C32.5807 45.5034 31.8522 44.3998 30.829 43.6114C29.8059 42.8231 28.5464 42.3951 27.25 42.3951C25.9536 42.3951 24.6941 42.8231 23.671 43.6114C22.6478 44.3998 21.9193 45.5034 21.6008 46.7477H19.9286V36.7539C19.9284 35.8809 20.1937 35.0281 20.69 34.3066L24.6597 28.5347C24.7939 28.3391 24.9744 28.179 25.1855 28.0683C25.3966 27.9576 25.6318 27.8997 25.8706 27.8997H37.5791C37.7921 27.8989 38.0028 27.9444 38.1961 28.0331C38.3894 28.1218 38.5607 28.2515 38.6978 28.4129L43.6764 34.6023C43.8457 34.8128 44.0708 34.9724 44.3265 35.0634L55.0714 38.8866V46.7477Z" fill="#F9F9F9"/>
</svg>
