<?xml version="1.0" encoding="utf-8"?>
<!-- Generator: Adobe Illustrator 23.1.0, SVG Export Plug-In . SVG Version: 6.00 Build 0)  -->
<svg version="1.1" id="Capa_1" xmlns="http://www.w3.org/2000/svg" xmlns:xlink="http://www.w3.org/1999/xlink" x="0px" y="0px"
	 viewBox="0 0 75 75" style="enable-background:new 0 0 75 75;" xml:space="preserve">
<style type="text/css">
	.st0{fill:#212121;fill-opacity:0.9;}
	.st1{fill:#F9F9F9;}
</style>
<path class="st0" d="M10,0h55c5.5,0,10,4.5,10,10v55c0,5.5-4.5,10-10,10H10C4.5,75,0,70.5,0,65V10C0,4.5,4.5,0,10,0z"/>
<g>
	<path class="st1" d="M40.3,47.4c-0.3-0.2-0.7-0.3-1.1-0.2c-0.4,0.1-0.7,0.3-1,0.6c-0.6,0.8-1.3,1.5-2.2,2c-0.8,0.5-1.9,0.8-2.9,0.8
		c-0.8,0.1-1.9-0.1-2.8-0.5c-1.1-0.6-1.9-1.2-2.4-1.9c-0.6-0.8-1-1.7-1.3-2.6c-0.2-1.1-0.2-2.2,0.1-3.1c0.2-1,0.7-2,1.4-2.7
		c0.6-0.7,1.4-1.3,2.5-1.7c0.4-0.2,0.6-0.5,0.8-0.8c0.1-0.4,0.1-0.8,0-1.1c-0.2-0.4-0.5-0.6-0.8-0.8c-0.4-0.1-0.8-0.1-1.1,0
		c-1,0.5-2.4,1.3-3.5,2.5c-0.9,1.1-1.7,2.5-2,3.9c-0.3,1.3-0.4,2.8-0.1,4.4c0.4,1.5,1,2.8,1.9,3.9c0.8,1,1.9,1.9,3.5,2.7
		c1.2,0.6,2.5,0.9,3.7,0.9c0.2,0,0.4,0,0.5,0c1.4,0,3-0.4,4.2-1.2c1.3-0.7,2.4-1.7,3.2-2.9C41.1,48.8,40.9,47.8,40.3,47.4z"/>
	<path class="st1" d="M50.3,49.3l-6.4-8c-0.3-0.4-0.7-0.6-1.2-0.6h-4.9v-3.4h6.5c0.8,0,1.5-0.7,1.5-1.5s-0.7-1.5-1.5-1.5h-6.5v-3.6
		c0.7-0.2,1.4-0.6,1.9-1.1c0.9-0.9,1.3-2,1.3-3.4c0-1.3-0.5-2.5-1.3-3.4c-0.9-0.9-2-1.3-3.4-1.3c-1.3,0-2.5,0.5-3.4,1.3
		c-0.8,0.8-1.3,2.1-1.3,3.4c0,1.3,0.5,2.5,1.3,3.4c0.5,0.5,1.1,0.9,1.9,1.1v11.5c0,0.8,0.7,1.5,1.5,1.5H42l5.9,7.4
		c0.3,0.4,0.7,0.6,1.2,0.6c0.3,0,0.7-0.1,0.9-0.3C50.7,50.9,50.8,49.9,50.3,49.3z M36.3,24.5c0.5,0,0.9,0.2,1.2,0.5
		c0.3,0.3,0.5,0.8,0.5,1.2c0,0.5-0.2,0.9-0.5,1.2c-0.3,0.3-0.8,0.5-1.2,0.5c-0.5,0-0.9-0.2-1.2-0.5c-0.3-0.3-0.5-0.8-0.5-1.2
		c0-0.5,0.2-1,0.5-1.2S35.8,24.5,36.3,24.5z"/>
</g>
</svg>
