<svg width="435" height="45" viewBox="0 0 435 45" fill="none" xmlns="http://www.w3.org/2000/svg">
<path d="M13.4596 10.5369C9.09381 12.7509 6.09082 17.2818 6.09082 22.5C6.09082 25.6377 7.17904 28.5262 8.99386 30.8138L8.99386 18.7204L25.507 34.4777C29.8885 32.2693 32.9044 27.7294 32.9044 22.5006C32.9044 19.3577 31.8128 16.4654 29.9929 14.1761L29.9929 26.2796L13.4596 10.5369Z" fill="#212121"/>
<path d="M1.66209 22.4994C1.66209 16.1015 5.03737 10.4875 10.1028 7.34072L8.99382 6.2845L2.39319 4.18438e-07L0 0L-6.77787e-06 38.7649L6.53324 44.9994L8.99325 44.9994L8.99325 36.9108C4.55053 33.6658 1.66209 28.4184 1.66209 22.4994Z" fill="#212121"/>
<path d="M38.9925 1.77173e-06L36.5308 1.34132e-06L29.9914 6.23396L29.9914 8.08304C34.4386 11.3275 37.331 16.5771 37.331 22.5C37.331 28.9108 33.9422 34.5344 28.8594 37.6784L29.9908 38.7582L36.5319 45L38.9925 45L38.9925 1.77173e-06Z" fill="#212121"/>
<path d="M55.744 17.696V32H53.272V17.696H55.744ZM55.72 12.32V15.344H53.248V12.32H55.72ZM78.5442 22.472V27.296C78.5442 30.44 76.6002 32 72.7122 32H65.2962C61.3842 32 59.4402 30.416 59.4402 27.248V22.472C59.4402 19.28 61.3842 17.696 65.2962 17.696H72.7122C76.6002 17.696 78.5442 19.28 78.5442 22.472ZM72.7122 19.688H65.9202C62.7042 19.688 61.9122 20.624 61.9122 23.024V26.552C61.9122 29.216 62.9682 29.912 65.8962 29.912H72.0882C75.3282 29.912 76.0962 29 76.0962 26.576V23.048C76.0962 20.816 75.2802 19.688 72.7122 19.688ZM124.21 22.472V27.248C124.21 30.416 122.266 32 118.378 32H107.578V36.656H105.106V22.472C105.106 19.28 107.05 17.696 110.962 17.696H118.378C122.266 17.696 124.21 19.28 124.21 22.472ZM118.378 19.688H111.706C109.042 19.688 107.578 20.312 107.578 22.448V29.912H117.658C120.274 29.912 121.738 29.24 121.738 27.152V22.448C121.738 20.6 120.61 19.688 118.378 19.688ZM145.915 21.872V28.208C145.915 30.728 144.187 32 140.731 32H132.115C129.331 32 127.939 30.896 127.939 28.664V27.032C127.939 24.728 129.331 23.576 132.115 23.576H143.443V22.016C143.443 20.456 142.459 19.664 140.515 19.664H128.275V17.696H140.731C144.187 17.696 145.915 19.088 145.915 21.872ZM143.443 25.52H132.427C131.083 25.52 130.411 26.144 130.411 27.392V27.944C130.411 29.312 131.083 29.984 132.427 29.984H139.867C142.171 29.984 143.443 29.528 143.443 27.776V25.52ZM161.695 17.696V19.688H155.479C152.503 19.688 152.095 21.104 152.095 23.408V32H149.623V22.472C149.623 19.28 151.567 17.696 155.479 17.696H161.695ZM181.596 17.696L175.38 24.224L182.364 32H179.484L173.532 25.376H166.956V32H164.628V12.32H166.956V23.456H173.244L178.716 17.696H181.596Z" fill="#212121"/>
<path d="M101.377 22.472V32H98.905V22.448C98.905 20.6 97.777 19.688 95.545 19.688H84.745V32H82.273V17.696H95.545C99.433 17.696 101.377 19.28 101.377 22.472Z" fill="#E93636"/>
</svg>
