<?xml version="1.0" encoding="utf-8"?>
<!-- Generator: Adobe Illustrator 23.1.0, SVG Export Plug-In . SVG Version: 6.00 Build 0)  -->
<svg version="1.1" id="Capa_1" xmlns="http://www.w3.org/2000/svg" xmlns:xlink="http://www.w3.org/1999/xlink" x="0px" y="0px"
	 viewBox="0 0 616 107.1" style="enable-background:new 0 0 616 107.1;" xml:space="preserve">
<style type="text/css">
	.st0{fill:#212121;fill-opacity:0.75;}
	.st1{fill:none;stroke:#212121;stroke-opacity:0.5;}
	.st2{fill:none;stroke:#212121;stroke-opacity:0.9;}
	.st3{fill:#F9F9F9;}
	.st4{fill:#212121;fill-opacity:0.9;}
	.st5{fill:#212121;fill-opacity:0.1;}
	.st6{fill:#F9F9F9;stroke:#2C2C2C;}
</style>
<path class="st0" d="M245.5,103.1c-0.1,0-0.2,0-0.3-0.1c-0.1-0.1-0.2-0.2-0.2-0.3v-1.6c0-0.4,0.1-0.8,0.4-1.2c0.3-0.4,0.6-0.7,1-1.1
	c0.4-0.3,0.8-0.7,1.3-1c0.5-0.3,0.9-0.7,1.3-1c0.4-0.4,0.8-0.7,1-1.1c0.3-0.4,0.4-0.8,0.4-1.3c0-0.3-0.1-0.7-0.2-1
	c-0.2-0.3-0.4-0.6-0.7-0.8c-0.3-0.2-0.7-0.3-1.2-0.3c-0.5,0-1,0.2-1.4,0.5c-0.4,0.3-0.6,0.8-0.6,1.4c0,0.1,0,0.2-0.1,0.3
	c-0.1,0.1-0.2,0.1-0.4,0.1c-0.2,0-0.3,0-0.4-0.1c-0.1-0.1-0.1-0.3-0.1-0.5c0-0.5,0.1-1,0.4-1.4c0.3-0.4,0.6-0.7,1.1-0.9
	c0.5-0.2,1-0.4,1.5-0.4c0.6,0,1.2,0.1,1.6,0.4c0.5,0.3,0.9,0.6,1.1,1.1c0.3,0.5,0.4,1,0.4,1.6c0,0.6-0.1,1.1-0.4,1.5
	c-0.3,0.5-0.6,0.9-1,1.2c-0.4,0.4-0.8,0.7-1.3,1c-0.5,0.3-0.9,0.6-1.3,0.9c-0.4,0.3-0.7,0.6-1,0.9c-0.3,0.3-0.4,0.6-0.4,1v1h5.1
	c0.1,0,0.2,0,0.3,0.1c0.1,0.1,0.1,0.2,0.1,0.3c0,0.1,0,0.2-0.1,0.4c-0.1,0.1-0.2,0.1-0.3,0.1H245.5z M257.1,103.2
	c-0.6,0-1.2-0.1-1.7-0.3c-0.5-0.2-0.9-0.6-1.2-1.1c-0.3-0.5-0.4-1.2-0.4-2v-4.9c0-0.8,0.1-1.5,0.4-2c0.3-0.5,0.7-0.9,1.2-1.1
	c0.5-0.2,1.1-0.3,1.7-0.3c0.6,0,1.2,0.1,1.7,0.3c0.5,0.2,0.9,0.6,1.2,1.1c0.3,0.5,0.4,1.2,0.4,2v4.9c0,0.8-0.1,1.5-0.4,2
	c-0.3,0.5-0.7,0.9-1.2,1.1C258.3,103.1,257.7,103.2,257.1,103.2z M257.1,102.2c0.7,0,1.3-0.2,1.7-0.6c0.4-0.4,0.6-1,0.6-1.9v-4.9
	c0-0.8-0.2-1.5-0.6-1.9c-0.4-0.4-0.9-0.6-1.7-0.6c-0.7,0-1.3,0.2-1.7,0.6c-0.4,0.4-0.6,1-0.6,1.9v4.9c0,0.8,0.2,1.5,0.6,1.9
	C255.8,102,256.4,102.2,257.1,102.2z M257.1,97.9c-0.2,0-0.3-0.1-0.4-0.2c-0.1-0.1-0.2-0.3-0.2-0.4c0-0.2,0.1-0.3,0.2-0.4
	c0.1-0.1,0.3-0.2,0.4-0.2c0.2,0,0.3,0.1,0.4,0.2c0.1,0.1,0.2,0.2,0.2,0.4c0,0.2-0.1,0.3-0.2,0.4C257.4,97.9,257.3,97.9,257.1,97.9z
	 M267.4,103.2c-0.7,0-1.2-0.1-1.7-0.4c-0.5-0.2-0.9-0.6-1.2-1.1c-0.3-0.5-0.4-1.1-0.4-1.9v-0.8h-1c-0.1,0-0.2,0-0.3-0.1
	c-0.1-0.1-0.1-0.2-0.1-0.3c0-0.1,0-0.2,0.1-0.3c0.1-0.1,0.2-0.1,0.3-0.1h1v-1.5h-1c-0.1,0-0.2,0-0.3-0.1c-0.1-0.1-0.1-0.2-0.1-0.3
	c0-0.1,0-0.2,0.1-0.3c0.1-0.1,0.2-0.1,0.3-0.1h1v-1c0-0.8,0.1-1.5,0.4-2c0.3-0.5,0.7-0.9,1.2-1.1c0.5-0.2,1.1-0.3,1.7-0.3
	c0.7,0,1.3,0.1,1.8,0.4c0.5,0.2,0.9,0.6,1.2,1c0.3,0.4,0.4,0.9,0.4,1.4c0,0.2,0,0.3-0.1,0.4c-0.1,0.1-0.2,0.1-0.4,0.1
	c-0.2,0-0.3,0-0.4-0.1c-0.1-0.1-0.1-0.2-0.1-0.3c0-0.3-0.1-0.6-0.2-0.8c-0.1-0.2-0.2-0.4-0.4-0.6c-0.2-0.2-0.4-0.3-0.7-0.4
	c-0.3-0.1-0.6-0.1-0.9-0.1c-0.7,0-1.3,0.2-1.7,0.6c-0.4,0.4-0.6,1-0.6,1.8v1h2.7c0.1,0,0.2,0,0.3,0.1c0.1,0.1,0.1,0.2,0.1,0.3
	c0,0.1,0,0.2-0.1,0.3c-0.1,0.1-0.2,0.1-0.3,0.1h-2.7v1.5h2.7c0.1,0,0.2,0,0.3,0.1c0.1,0.1,0.1,0.2,0.1,0.3c0,0.1,0,0.2-0.1,0.3
	c-0.1,0.1-0.2,0.1-0.3,0.1h-2.7v0.8c0,0.4,0,0.7,0.1,1c0.1,0.3,0.2,0.5,0.4,0.8c0.2,0.2,0.4,0.4,0.7,0.5c0.3,0.1,0.6,0.2,1,0.2
	c0.5,0,0.9-0.1,1.2-0.2c0.3-0.2,0.6-0.4,0.8-0.7c0.2-0.3,0.3-0.7,0.3-1.1c0-0.1,0.1-0.2,0.1-0.3c0.1-0.1,0.2-0.1,0.4-0.1
	c0.2,0,0.3,0,0.4,0.1c0.1,0.1,0.1,0.2,0.1,0.4c0,0.5-0.1,1-0.4,1.5c-0.3,0.4-0.7,0.8-1.2,1C268.7,103.1,268.1,103.2,267.4,103.2z"/>
<path class="st0" d="M7.4,103.2c-0.6,0-1.2-0.1-1.7-0.3s-0.9-0.6-1.2-1.1c-0.3-0.5-0.4-1.2-0.4-2v-4.9c0-0.8,0.1-1.5,0.4-2
	c0.3-0.5,0.7-0.9,1.2-1.1c0.5-0.2,1.1-0.3,1.7-0.3s1.2,0.1,1.7,0.3s0.9,0.6,1.2,1.1c0.3,0.5,0.4,1.2,0.4,2v4.9c0,0.8-0.1,1.5-0.4,2
	c-0.3,0.5-0.7,0.9-1.2,1.1S8,103.2,7.4,103.2z M7.4,102.2c0.7,0,1.3-0.2,1.7-0.6c0.4-0.4,0.6-1,0.6-1.9v-4.9c0-0.8-0.2-1.5-0.6-1.9
	c-0.4-0.4-0.9-0.6-1.7-0.6S6.1,92.6,5.8,93c-0.4,0.4-0.6,1-0.6,1.9v4.9c0,0.8,0.2,1.5,0.6,1.9S6.7,102.2,7.4,102.2z M7.4,97.9
	c-0.2,0-0.3-0.1-0.4-0.2c-0.1-0.1-0.2-0.3-0.2-0.4c0-0.2,0.1-0.3,0.2-0.4c0.1-0.1,0.3-0.2,0.4-0.2c0.2,0,0.3,0.1,0.4,0.2
	C8,97,8,97.1,8,97.3c0,0.2-0.1,0.3-0.2,0.4C7.7,97.9,7.6,97.9,7.4,97.9z M17.7,103.2c-0.7,0-1.2-0.1-1.7-0.4
	c-0.5-0.2-0.9-0.6-1.2-1.1c-0.3-0.5-0.4-1.1-0.4-1.9v-0.8h-1c-0.1,0-0.2,0-0.3-0.1c-0.1-0.1-0.1-0.2-0.1-0.3c0-0.1,0-0.2,0.1-0.3
	c0.1-0.1,0.2-0.1,0.3-0.1h1v-1.5h-1c-0.1,0-0.2,0-0.3-0.1c-0.1-0.1-0.1-0.2-0.1-0.3c0-0.1,0-0.2,0.1-0.3c0.1-0.1,0.2-0.1,0.3-0.1h1
	v-1c0-0.8,0.1-1.5,0.4-2c0.3-0.5,0.7-0.9,1.2-1.1c0.5-0.2,1.1-0.3,1.7-0.3c0.7,0,1.3,0.1,1.8,0.4c0.5,0.2,0.9,0.6,1.2,1
	c0.3,0.4,0.4,0.9,0.4,1.4c0,0.2,0,0.3-0.1,0.4c-0.1,0.1-0.2,0.1-0.4,0.1c-0.2,0-0.3,0-0.4-0.1c-0.1-0.1-0.1-0.2-0.1-0.3
	c0-0.3-0.1-0.6-0.2-0.8c-0.1-0.2-0.2-0.4-0.4-0.6c-0.2-0.2-0.4-0.3-0.7-0.4c-0.3-0.1-0.6-0.1-0.9-0.1c-0.7,0-1.3,0.2-1.7,0.6
	c-0.4,0.4-0.6,1-0.6,1.8v1h2.7c0.1,0,0.2,0,0.3,0.1c0.1,0.1,0.1,0.2,0.1,0.3c0,0.1,0,0.2-0.1,0.3c-0.1,0.1-0.2,0.1-0.3,0.1h-2.7v1.5
	h2.7c0.1,0,0.2,0,0.3,0.1c0.1,0.1,0.1,0.2,0.1,0.3c0,0.1,0,0.2-0.1,0.3c-0.1,0.1-0.2,0.1-0.3,0.1h-2.7v0.8c0,0.4,0,0.7,0.1,1
	c0.1,0.3,0.2,0.5,0.4,0.8c0.2,0.2,0.4,0.4,0.7,0.5c0.3,0.1,0.6,0.2,1,0.2c0.5,0,0.9-0.1,1.2-0.2c0.3-0.2,0.6-0.4,0.8-0.7
	c0.2-0.3,0.3-0.7,0.3-1.1c0-0.1,0.1-0.2,0.1-0.3c0.1-0.1,0.2-0.1,0.4-0.1c0.2,0,0.3,0,0.4,0.1c0.1,0.1,0.1,0.2,0.1,0.4
	c0,0.5-0.1,1-0.4,1.5c-0.3,0.4-0.7,0.8-1.2,1C19,103.1,18.4,103.2,17.7,103.2z"/>
<line class="st1" x1="5" y1="75.6" x2="616" y2="75.6"/>
<line class="st2" x1="19" y1="75.6" x2="247" y2="75.6"/>
<circle class="st3" cx="12" cy="75.6" r="7"/>
<circle class="st2" cx="12" cy="75.6" r="6.5"/>
<path class="st4" d="M57,35.6c0-2.5,2-4.5,4.5-4.5s4.5,2,4.5,4.5v39.5h-9V35.6z"/>
<path class="st4" d="M69,14.6c0-2.5,2-4.5,4.5-4.5s4.5,2,4.5,4.5v60.5h-9V14.6z"/>
<path class="st4" d="M81,26.6c0-2.5,2-4.5,4.5-4.5s4.5,2,4.5,4.5v48.5h-9V26.6z"/>
<path class="st4" d="M93,30.6c0-2.5,2-4.5,4.5-4.5s4.5,2,4.5,4.5v44.5h-9V30.6z"/>
<path class="st4" d="M105,17.6c0-2.5,2-4.5,4.5-4.5s4.5,2,4.5,4.5v57.5h-9V17.6z"/>
<path class="st4" d="M129,14.6c0-2.5,2-4.5,4.5-4.5s4.5,2,4.5,4.5v60.5h-9V14.6z"/>
<path class="st4" d="M141,26.6c0-2.5,2-4.5,4.5-4.5s4.5,2,4.5,4.5v48.5h-9V26.6z"/>
<path class="st4" d="M177,35.6c0-2.5,2-4.5,4.5-4.5s4.5,2,4.5,4.5v39.5h-9V35.6z"/>
<path class="st4" d="M189,14.6c0-2.5,2-4.5,4.5-4.5s4.5,2,4.5,4.5v60.5h-9V14.6z"/>
<path class="st4" d="M201,26.6c0-2.5,2-4.5,4.5-4.5s4.5,2,4.5,4.5v48.5h-9V26.6z"/>
<path class="st4" d="M225,17.6c0-2.5,2-4.5,4.5-4.5s4.5,2,4.5,4.5v57.5h-9V17.6z"/>
<path class="st4" d="M249,14.6c0-2.5,2-4.5,4.5-4.5s4.5,2,4.5,4.5v60.5h-9V14.6z"/>
<path class="st5" d="M261,26.6c0-2.5,2-4.5,4.5-4.5s4.5,2,4.5,4.5v48.5h-9V26.6z"/>
<path class="st5" d="M285,17.6c0-2.5,2-4.5,4.5-4.5s4.5,2,4.5,4.5v57.5h-9V17.6z"/>
<path class="st5" d="M297,35.6c0-2.5,2-4.5,4.5-4.5s4.5,2,4.5,4.5v39.5h-9V35.6z"/>
<path class="st5" d="M309,14.6c0-2.5,2-4.5,4.5-4.5s4.5,2,4.5,4.5v60.5h-9V14.6z"/>
<path class="st5" d="M321,26.6c0-2.5,2-4.5,4.5-4.5s4.5,2,4.5,4.5v48.5h-9V26.6z"/>
<path class="st5" d="M333,30.6c0-2.5,2-4.5,4.5-4.5s4.5,2,4.5,4.5v44.5h-9V30.6z"/>
<path class="st5" d="M369,14.6c0-2.5,2-4.5,4.5-4.5s4.5,2,4.5,4.5v60.5h-9V14.6z"/>
<path class="st5" d="M381,26.6c0-2.5,2-4.5,4.5-4.5s4.5,2,4.5,4.5v48.5h-9V26.6z"/>
<path class="st5" d="M405,17.6c0-2.5,2-4.5,4.5-4.5s4.5,2,4.5,4.5v57.5h-9V17.6z"/>
<path class="st5" d="M417,35.6c0-2.5,2-4.5,4.5-4.5s4.5,2,4.5,4.5v39.5h-9V35.6z"/>
<path class="st5" d="M429,14.6c0-2.5,2-4.5,4.5-4.5s4.5,2,4.5,4.5v60.5h-9V14.6z"/>
<circle class="st6" cx="254" cy="75.6" r="6.5"/>
</svg>
