<?xml version="1.0" encoding="utf-8"?>
<!-- Generator: Adobe Illustrator 23.1.0, SVG Export Plug-In . SVG Version: 6.00 Build 0)  -->
<svg version="1.1" id="Capa_1" xmlns="http://www.w3.org/2000/svg" xmlns:xlink="http://www.w3.org/1999/xlink" x="0px" y="0px"
	 viewBox="0 0 75 75" style="enable-background:new 0 0 75 75;" xml:space="preserve">
<style type="text/css">
	.st0{fill:#212121;fill-opacity:0.9;}
	.st1{fill:#F9F9F9;}
</style>
<path class="st0" d="M10,0h55c5.5,0,10,4.5,10,10v55c0,5.5-4.5,10-10,10H10C4.5,75,0,70.5,0,65V10C0,4.5,4.5,0,10,0z"/>
<g>
	<path class="st1" d="M44.3,36.4l-0.1-0.1c-0.2-0.1-0.5-0.3-0.8-0.3h-6.6v-6.6c0-0.2,0-0.6-0.3-1l-0.1-0.1c-0.2-0.1-0.5-0.3-0.8-0.3
		c-0.2,0-0.6,0-1,0.3l-0.1,0.1c-0.1,0.2-0.3,0.5-0.3,0.8v8c0,0.2,0,0.6,0.3,1l0.1,0.1c0.2,0.1,0.5,0.3,0.8,0.3h8c0.2,0,0.6,0,1-0.3
		l0.1-0.1c0.1-0.2,0.3-0.5,0.3-0.8c0-0.3-0.1-0.6-0.4-1L44.3,36.4z"/>
	<path class="st1" d="M46,26.9c-3-2.9-6.7-4.4-10.5-4.4c-2.9,0-5.8,0.9-8.4,2.5c-2.3,1.5-4.3,3.8-5.5,6.7c-1.2,2.7-1.4,5.8-0.8,8.7
		c0.7,3,2.1,5.7,4.1,7.6c2,2,4.8,3.5,7.6,4.1c1,0.2,2,0.3,3,0.3c1.9,0,3.9-0.4,5.7-1.1c2.7-1.1,5-3.1,6.7-5.5
		c1.6-2.4,2.5-5.3,2.5-8.4C50.5,33.5,48.9,29.7,46,26.9z M47.9,37.4c0,3.2-1.3,6.3-3.7,8.6c-2.4,2.4-5.5,3.8-8.7,3.8
		c-2.4,0-4.8-0.8-6.8-2.1c-2-1.3-3.5-3.2-4.5-5.5c-0.9-2.2-1.2-4.6-0.7-7.1c0.5-2.4,1.7-4.6,3.4-6.3c1.7-1.7,3.9-2.9,6.3-3.4
		c0.8-0.2,1.6-0.2,2.4-0.2c1.6,0,3.2,0.3,4.7,0.9c2.3,1,4.2,2.6,5.5,4.5C47.1,32.6,47.9,35,47.9,37.4z"/>
</g>
</svg>
