<svg width="64" height="32" viewBox="0 0 64 32" fill="none" xmlns="http://www.w3.org/2000/svg">
<g clip-path="url(#clip0_734_84)">
<path d="M2.93333 0.133362C1.296 0.133362 4.23492e-08 1.41336 4.23492e-08 3.01336C-6.55904e-05 3.3961 0.0761576 3.77501 0.224215 4.12795C0.372272 4.48089 0.589193 4.80078 0.862301 5.06892C1.13541 5.33706 1.45922 5.54808 1.81482 5.68963C2.17042 5.83119 2.55066 5.90045 2.93333 5.89336C4.58667 5.89336 5.89333 4.61336 5.89333 3.01336C5.89333 1.41336 4.58667 0.133362 2.93333 0.133362ZM23.2267 0.186695C14.2667 0.186695 8.66667 6.29336 8.66667 16C8.66667 25.7867 14.2667 31.8667 23.2267 31.8667C32.1333 31.8667 37.76 25.7867 37.76 16C37.76 6.29336 32.1333 0.186695 23.2267 0.186695ZM52.1333 0.186695C45.4667 0.186695 40.72 3.86669 40.72 9.33336C40.72 13.68 43.4133 16.4 49.0667 17.7067L53.04 18.6667C56.9067 19.5467 58.48 20.8267 58.48 23.04C58.48 25.6 55.8933 27.4134 52.2133 27.4134C48.4533 27.4134 45.6267 25.5734 45.3333 22.7467H40C40.2133 28.4 44.8533 31.8667 51.8933 31.8667C59.3333 31.8667 64 28.2134 64 22.4C64 17.84 61.3333 15.2534 55.1467 13.84L51.6 13.04C47.84 12.1334 46.2933 10.9334 46.2933 8.9067C46.2933 6.3467 48.64 4.64003 52.1067 4.64003C55.6 4.64003 58 6.37336 58.2667 9.2267H63.4933C63.36 3.84003 58.9067 0.186695 52.1333 0.186695ZM23.2267 4.85336C28.6667 4.85336 32.16 9.20003 32.16 16C32.16 22.8534 28.6667 27.2 23.2267 27.2C17.7333 27.2 14.2667 22.8534 14.2667 16C14.2667 9.20003 17.7333 4.85336 23.2267 4.85336ZM0.296 8.8267V31.36H5.6V8.8267H0.293333H0.296Z" fill="#F9F9F9" fill-opacity="0.9"/>
</g>
<defs>
<clipPath id="clip0_734_84">
<rect width="64" height="32" fill="white"/>
</clipPath>
</defs>
</svg>
