<svg width="39" height="49" viewBox="0 0 39 49" fill="none" xmlns="http://www.w3.org/2000/svg">
<g clip-path="url(#clip0_706_1301)">
<path d="M19.5004 28C17.7473 28 16.0336 27.4868 14.576 26.5254C13.1184 25.5639 11.9823 24.1973 11.3114 22.5985C10.6406 20.9996 10.465 19.2403 10.807 17.543C11.149 15.8456 11.9932 14.2865 13.2328 13.0628C14.4724 11.8391 16.0518 11.0058 17.7711 10.6681C19.4905 10.3305 21.2727 10.5038 22.8923 11.1661C24.5119 11.8283 25.8962 12.9498 26.8702 14.3888C27.8441 15.8277 28.364 17.5194 28.364 19.25C28.3612 21.5698 27.4264 23.7938 25.7648 25.4341C24.1031 27.0745 21.8503 27.9972 19.5004 28ZM19.5004 14C18.4485 14 17.4203 14.3079 16.5457 14.8848C15.6712 15.4617 14.9895 16.2816 14.587 17.2409C14.1845 18.2002 14.0792 19.2558 14.2844 20.2742C14.4896 21.2926 14.9961 22.2281 15.7398 22.9623C16.4836 23.6965 17.4312 24.1966 18.4628 24.3991C19.4945 24.6017 20.5638 24.4977 21.5355 24.1004C22.5073 23.703 23.3379 23.0301 23.9223 22.1667C24.5066 21.3034 24.8185 20.2884 24.8185 19.25C24.8171 17.858 24.2564 16.5235 23.2593 15.5392C22.2623 14.555 20.9104 14.0014 19.5004 14Z" fill="#212121"/>
<path d="M19.5 49L4.54529 31.5893C4.33749 31.3278 4.13185 31.0647 3.92838 30.8C1.37385 27.4781 -0.00617119 23.4206 2.0746e-05 19.25C2.0746e-05 14.1446 2.05448 9.24827 5.71143 5.6382C9.36839 2.02812 14.3283 0 19.5 0C24.6717 0 29.6316 2.02812 33.2886 5.6382C36.9455 9.24827 39 14.1446 39 19.25C39.0062 23.4187 37.6268 27.4744 35.0734 30.7948L35.0716 30.8C35.0716 30.8 34.5398 31.4895 34.46 31.5823L19.5 49ZM6.75765 28.6912C6.7612 28.6912 7.17247 29.2302 7.26642 29.3457L19.5 43.589L31.7495 29.3265C31.8275 29.2302 32.2423 28.6877 32.2441 28.686C34.3309 25.9719 35.4586 22.6573 35.4545 19.25C35.4545 15.0728 33.7736 11.0668 30.7816 8.11307C27.7895 5.15937 23.7314 3.5 19.5 3.5C15.2686 3.5 11.2105 5.15937 8.21844 8.11307C5.22639 11.0668 3.54547 15.0728 3.54547 19.25C3.54175 22.6594 4.66899 25.976 6.75765 28.6912Z" fill="#212121"/>
</g>
<defs>
<clipPath id="clip0_706_1301">
<rect width="39" height="49" fill="white"/>
</clipPath>
</defs>
</svg>
