<svg width="32" height="32" viewBox="0 0 32 32" fill="none" xmlns="http://www.w3.org/2000/svg">
<path d="M11.2001 7.42238V29.6M20.8001 1.59998V24M1.6001 10.736C1.6001 8.37758 1.6001 7.19998 2.2289 6.51198C2.45144 6.26723 2.72217 6.07112 3.0241 5.93598C3.8753 5.55838 4.9937 5.93118 7.2305 6.67678C8.9377 7.24638 9.7905 7.53118 10.6545 7.50078C10.9715 7.49036 11.2866 7.44855 11.5953 7.37598C12.4353 7.17598 13.1841 6.67678 14.6817 5.67998L16.8929 4.20478C18.8129 2.92478 19.7713 2.28478 20.8721 2.13918C21.9729 1.99038 23.0673 2.35518 25.2545 3.08478L27.1185 3.70558C28.7025 4.23358 29.4945 4.49758 29.9473 5.12638C30.4001 5.75518 30.4001 6.59038 30.4001 8.25918V21.2656C30.4001 23.6224 30.4001 24.8016 29.7713 25.4896C29.5484 25.7332 29.2777 25.9282 28.9761 26.0624C28.1249 26.4416 27.0065 26.0688 24.7697 25.3232C23.0625 24.7536 22.2097 24.4688 21.3457 24.4992C21.0287 24.5096 20.7136 24.5514 20.4049 24.624C19.5649 24.824 18.8161 25.3232 17.3185 26.32L15.1073 27.7952C13.1873 29.0752 12.2289 29.7152 11.1281 29.8608C10.0273 30.0096 8.9329 29.6448 6.7457 28.9152L4.8817 28.2944C3.2977 27.7664 2.5057 27.5024 2.0529 26.8736C1.6001 26.2448 1.6001 25.408 1.6001 23.7408V10.7344V10.736Z" stroke="#E93636" stroke-opacity="0.9" stroke-width="1.5"/>
</svg>
