<?xml version="1.0" encoding="utf-8"?>
<!-- Generator: Adobe Illustrator 23.1.0, SVG Export Plug-In . SVG Version: 6.00 Build 0)  -->
<svg version="1.1" id="Capa_1" xmlns="http://www.w3.org/2000/svg" xmlns:xlink="http://www.w3.org/1999/xlink" x="0px" y="0px"
	 viewBox="0 0 32 32" style="enable-background:new 0 0 32 32;" xml:space="preserve">
<style type="text/css">
	.st0{fill:none;stroke:#FFFFFF;stroke-width:1.5;stroke-opacity:0.9;}
</style>
<path class="st0" d="M11.2,7.4v22.2 M20.8,1.6V24 M1.6,10.7c0-2.4,0-3.5,0.6-4.2C2.5,6.3,2.7,6.1,3,5.9c0.9-0.4,2,0,4.2,0.7
	c1.7,0.6,2.6,0.9,3.4,0.8c0.3,0,0.6-0.1,0.9-0.1c0.8-0.2,1.6-0.7,3.1-1.7l2.2-1.5c1.9-1.3,2.9-1.9,4-2.1C22,2,23.1,2.4,25.3,3.1
	l1.9,0.6c1.6,0.5,2.4,0.8,2.8,1.4s0.5,1.5,0.5,3.1v13c0,2.4,0,3.5-0.6,4.2c-0.2,0.2-0.5,0.4-0.8,0.6c-0.9,0.4-2,0-4.2-0.7
	c-1.7-0.6-2.6-0.9-3.4-0.8c-0.3,0-0.6,0.1-0.9,0.1c-0.8,0.2-1.6,0.7-3.1,1.7l-2.2,1.5c-1.9,1.3-2.9,1.9-4,2.1
	C10,30,8.9,29.6,6.7,28.9l-1.9-0.6c-1.6-0.5-2.4-0.8-2.8-1.4s-0.5-1.5-0.5-3.1V10.7L1.6,10.7z"/>
</svg>
