<?xml version="1.0" encoding="utf-8"?>
<!-- Generator: Adobe Illustrator 23.1.0, SVG Export Plug-In . SVG Version: 6.00 Build 0)  -->
<svg version="1.1" id="Capa_1" xmlns="http://www.w3.org/2000/svg" xmlns:xlink="http://www.w3.org/1999/xlink" x="0px" y="0px"
	 viewBox="0 0 75 75" style="enable-background:new 0 0 75 75;" xml:space="preserve">
<style type="text/css">
	.st0{fill:#212121;fill-opacity:3.000000e-02;}
	.st1{clip-path:url(#SVGID_2_);}
	.st2{fill:#FF5F00;}
	.st3{fill:#EB001B;}
	.st4{fill:#F79E1B;}
</style>
<path class="st0" d="M10,0h55c5.5,0,10,4.5,10,10v55c0,5.5-4.5,10-10,10H10C4.5,75,0,70.5,0,65V10C0,4.5,4.5,0,10,0z"/>
<g>
	<defs>
		<rect id="SVGID_1_" x="20" y="24" width="35" height="27"/>
	</defs>
	<clipPath id="SVGID_2_">
		<use xlink:href="#SVGID_1_"  style="overflow:visible;"/>
	</clipPath>
	<g class="st1">
		<path d="M26.4,50.9v-1.8c0-0.7-0.4-1.1-1.1-1.1c-0.4,0-0.8,0.1-1,0.5c-0.2-0.3-0.5-0.5-1-0.5c-0.3,0-0.6,0.1-0.8,0.4V48h-0.6v2.9
			h0.6v-1.6c0-0.5,0.3-0.7,0.7-0.7c0.4,0,0.6,0.3,0.6,0.7v1.6h0.6v-1.6c0-0.5,0.3-0.7,0.7-0.7c0.4,0,0.6,0.3,0.6,0.7v1.6H26.4z
			 M35.7,48h-1v-0.9H34V48h-0.6v0.6H34v1.3c0,0.7,0.3,1,1,1c0.3,0,0.6-0.1,0.8-0.2l-0.2-0.5c-0.2,0.1-0.4,0.1-0.5,0.1
			c-0.3,0-0.4-0.2-0.4-0.5v-1.3h1V48z M41,47.9c-0.4,0-0.6,0.2-0.8,0.4V48h-0.6v2.9h0.6v-1.6c0-0.5,0.2-0.7,0.6-0.7
			c0.1,0,0.3,0,0.4,0.1l0.2-0.6C41.3,47.9,41.2,47.9,41,47.9L41,47.9z M33,48.2c-0.3-0.2-0.7-0.3-1.2-0.3c-0.7,0-1.2,0.4-1.2,0.9
			c0,0.5,0.4,0.7,1,0.8l0.3,0c0.3,0.1,0.5,0.1,0.5,0.3c0,0.2-0.2,0.4-0.7,0.4c-0.4,0-0.8-0.1-1-0.3l-0.3,0.5
			c0.3,0.2,0.8,0.4,1.2,0.4c0.8,0,1.3-0.4,1.3-0.9c0-0.5-0.4-0.8-1-0.9l-0.3,0c-0.3,0-0.5-0.1-0.5-0.3c0-0.2,0.2-0.3,0.5-0.3
			c0.4,0,0.7,0.1,0.9,0.2L33,48.2z M49.7,47.9c-0.4,0-0.6,0.2-0.8,0.4V48h-0.6v2.9H49v-1.6c0-0.5,0.2-0.7,0.6-0.7
			c0.1,0,0.3,0,0.4,0.1l0.2-0.6C50,47.9,49.8,47.9,49.7,47.9z M41.7,49.4c0,0.9,0.6,1.5,1.5,1.5c0.4,0,0.7-0.1,1-0.3l-0.3-0.5
			c-0.2,0.2-0.5,0.3-0.8,0.3c-0.5,0-0.9-0.4-0.9-0.9c0-0.5,0.4-0.9,0.9-0.9c0.3,0,0.5,0.1,0.8,0.3l0.3-0.5c-0.3-0.2-0.6-0.3-1-0.3
			C42.3,47.9,41.7,48.6,41.7,49.4z M47.5,49.4V48h-0.6v0.4c-0.2-0.3-0.5-0.4-0.9-0.4c-0.8,0-1.4,0.6-1.4,1.5c0,0.9,0.6,1.5,1.4,1.5
			c0.4,0,0.7-0.1,0.9-0.4v0.4h0.6V49.4z M45.2,49.4c0-0.5,0.3-0.9,0.9-0.9c0.5,0,0.9,0.4,0.9,0.9c0,0.5-0.4,0.9-0.9,0.9
			C45.5,50.3,45.2,49.9,45.2,49.4z M37.6,47.9c-0.8,0-1.4,0.6-1.4,1.5c0,0.9,0.6,1.5,1.5,1.5c0.4,0,0.8-0.1,1.2-0.4l-0.3-0.4
			c-0.2,0.2-0.5,0.3-0.8,0.3c-0.4,0-0.8-0.2-0.9-0.7H39v-0.2C39,48.5,38.5,47.9,37.6,47.9z M37.6,48.5c0.4,0,0.7,0.2,0.7,0.7h-1.5
			C36.9,48.8,37.2,48.5,37.6,48.5z M53.3,49.4v-2.6h-0.6v1.5c-0.2-0.3-0.5-0.4-0.9-0.4c-0.8,0-1.4,0.6-1.4,1.5
			c0,0.9,0.6,1.5,1.4,1.5c0.4,0,0.7-0.1,0.9-0.4v0.4h0.6V49.4z M51,49.4c0-0.5,0.3-0.9,0.9-0.9c0.5,0,0.9,0.4,0.9,0.9
			c0,0.5-0.4,0.9-0.9,0.9C51.3,50.3,51,49.9,51,49.4z M29.9,49.4V48h-0.6v0.4c-0.2-0.3-0.5-0.4-0.9-0.4c-0.8,0-1.4,0.6-1.4,1.5
			c0,0.9,0.6,1.5,1.4,1.5c0.4,0,0.7-0.1,0.9-0.4v0.4h0.6V49.4z M27.6,49.4c0-0.5,0.3-0.9,0.9-0.9c0.5,0,0.9,0.4,0.9,0.9
			c0,0.5-0.4,0.9-0.9,0.9C27.9,50.3,27.6,49.9,27.6,49.4z"/>
		<path class="st2" d="M32.8,26.3h9.5v16.9h-9.5V26.3z"/>
		<path class="st3" d="M33.4,34.7c0-3.4,1.6-6.5,4.1-8.4c-1.8-1.4-4.1-2.3-6.7-2.3c-6,0-10.8,4.8-10.8,10.7
			c0,5.9,4.8,10.7,10.8,10.7c2.5,0,4.8-0.9,6.7-2.3C35,41.2,33.4,38.1,33.4,34.7z"/>
		<path class="st4" d="M55,34.7c0,5.9-4.8,10.7-10.8,10.7c-2.5,0-4.8-0.9-6.7-2.3c2.5-2,4.1-5,4.1-8.4c0-3.4-1.6-6.5-4.1-8.4
			c1.8-1.4,4.1-2.3,6.7-2.3C50.1,24,55,28.8,55,34.7z"/>
	</g>
</g>
</svg>
