<?xml version="1.0" encoding="utf-8"?>
<!-- Generator: Adobe Illustrator 23.1.0, SVG Export Plug-In . SVG Version: 6.00 Build 0)  -->
<svg version="1.1" id="Capa_1" xmlns="http://www.w3.org/2000/svg" xmlns:xlink="http://www.w3.org/1999/xlink" x="0px" y="0px"
	 viewBox="0 0 412 759" style="enable-background:new 0 0 412 759;" xml:space="preserve">
<style type="text/css">
	.st0{fill:url(#SVGID_1_);fill-opacity:0.25;}
	.st1{fill:none;}
	.st2{fill:#212121;fill-opacity:0.9;}
	.st3{fill:#212121;}
	.st4{fill:#F9F9F9;}
	.st5{fill:#E93636;fill-opacity:0.9;}
	.st6{fill:#EA4949;}
</style>
<g>
	
		<radialGradient id="SVGID_1_" cx="-85.1667" cy="800.5261" r="1" gradientTransform="matrix(3.673941e-16 6 192.5 -1.178723e-14 -153894.7813 1254)" gradientUnits="userSpaceOnUse">
		<stop  offset="0" style="stop-color:#161616"/>
		<stop  offset="1" style="stop-color:#161616;stop-opacity:0"/>
	</radialGradient>
	<ellipse class="st0" cx="206.5" cy="743" rx="192.5" ry="6"/>
</g>
<path class="st1" d="M79,28h255c19.3,0,35,15.7,35,35v609c0,19.3-15.7,35-35,35H79c-19.3,0-35-15.7-35-35V63C44,43.7,59.7,28,79,28z
	"/>
<rect x="-162" y="0" class="st1" width="736" height="736"/>
<path class="st2" d="M216.5,254h41c5.8,0,10.5,4.7,10.5,10.5l0,0c0,5.8-4.7,10.5-10.5,10.5h-41c-5.8,0-10.5-4.7-10.5-10.5l0,0
	C206,258.7,210.7,254,216.5,254z"/>
<path class="st3" d="M237.7,278.3c-0.4,0.4-1,0.4-1.4,0l-2.8-2.8c-0.6-0.6-0.2-1.7,0.7-1.7h5.6c0.9,0,1.3,1.1,0.7,1.7L237.7,278.3z"
	/>
<path class="st4" d="M227.6,271c-0.3,0-0.5-0.1-0.7-0.2c-0.2-0.1-0.3-0.3-0.3-0.5v-8.5l-0.5,0.5c-0.1,0-0.1,0.1-0.2,0.1
	c-0.1,0-0.1,0-0.2,0c-0.2,0-0.4-0.1-0.5-0.3c-0.1-0.2-0.2-0.4-0.2-0.6c0-0.1,0-0.3,0.1-0.4c0.1-0.1,0.2-0.3,0.3-0.3l1.9-1.4
	c0.1-0.1,0.1-0.1,0.2-0.1c0.1,0,0.2,0,0.3,0c0.2,0,0.4,0.1,0.6,0.2c0.2,0.1,0.3,0.3,0.3,0.5v10.4c0,0.2-0.1,0.4-0.3,0.5
	C228.1,270.9,227.8,271,227.6,271z M235.9,271c-0.3,0-0.5-0.1-0.7-0.2c-0.2-0.1-0.3-0.3-0.3-0.5v-1.9H231c-0.2,0-0.4-0.1-0.5-0.2
	c-0.1-0.1-0.2-0.3-0.2-0.5c0-0.1,0-0.1,0-0.2c0-0.1,0-0.1,0.1-0.2l3.8-7.4c0.1-0.2,0.2-0.3,0.4-0.4c0.2-0.1,0.3-0.1,0.5-0.1
	c0.1,0,0.3,0,0.4,0.1s0.3,0.2,0.4,0.3c0.1,0.1,0.2,0.3,0.2,0.4c0,0.1,0,0.2-0.1,0.3l-3.1,6.1h1.9v-1.7c0-0.2,0.1-0.4,0.3-0.5
	c0.2-0.1,0.5-0.2,0.7-0.2c0.3,0,0.5,0.1,0.7,0.2c0.2,0.1,0.3,0.3,0.3,0.5v1.7h0.7c0.2,0,0.4,0.1,0.5,0.3c0.1,0.2,0.2,0.4,0.2,0.7
	c0,0.2-0.1,0.5-0.2,0.7c-0.1,0.2-0.3,0.3-0.5,0.3h-0.7v1.9c0,0.2-0.1,0.4-0.3,0.5C236.4,270.9,236.1,271,235.9,271z M244.6,271.1
	c-0.8,0-1.4-0.1-2-0.4c-0.6-0.3-1-0.7-1.3-1.2c-0.3-0.5-0.4-1.1-0.4-1.8v-0.3h-0.7c-0.2,0-0.4-0.1-0.5-0.2c-0.1-0.1-0.2-0.3-0.2-0.5
	s0.1-0.4,0.2-0.5c0.1-0.1,0.3-0.2,0.5-0.2h0.7v-1.1h-0.7c-0.2,0-0.4-0.1-0.5-0.2c-0.1-0.1-0.2-0.3-0.2-0.5c0-0.2,0.1-0.4,0.2-0.5
	c0.1-0.1,0.3-0.2,0.5-0.2h0.7V263c0-0.9,0.2-1.6,0.5-2.1c0.3-0.5,0.8-0.9,1.3-1.2c0.6-0.2,1.2-0.4,1.9-0.4c0.7,0,1.4,0.1,2,0.4
	c0.6,0.2,1,0.6,1.4,1.1c0.3,0.5,0.5,1,0.5,1.6c0,0.4-0.1,0.6-0.3,0.8c-0.2,0.1-0.4,0.2-0.8,0.2c-0.4,0-0.6,0-0.8-0.1
	s-0.2-0.3-0.2-0.5c0-0.1,0-0.3-0.1-0.5c0-0.2-0.1-0.4-0.3-0.5c-0.1-0.2-0.3-0.3-0.5-0.4c-0.2-0.1-0.5-0.2-0.8-0.2
	c-0.5,0-1,0.2-1.3,0.5c-0.3,0.3-0.4,0.8-0.4,1.4v0.3h1.5c0.2,0,0.3,0.1,0.5,0.2c0.1,0.1,0.2,0.3,0.2,0.5c0,0.2-0.1,0.4-0.2,0.5
	c-0.1,0.1-0.3,0.2-0.5,0.2H243v1.1h1.5c0.2,0,0.3,0.1,0.5,0.2c0.1,0.1,0.2,0.3,0.2,0.5c0,0.2-0.1,0.4-0.2,0.5
	c-0.1,0.1-0.3,0.2-0.5,0.2H243v0.3c0,0.1,0,0.3,0.1,0.5c0.1,0.2,0.1,0.4,0.3,0.5c0.1,0.2,0.3,0.3,0.5,0.4c0.2,0.1,0.5,0.2,0.9,0.2
	c0.4,0,0.8-0.1,1-0.3c0.2-0.2,0.4-0.4,0.5-0.7c0.1-0.3,0.1-0.5,0.1-0.8c0-0.2,0.1-0.4,0.3-0.5c0.2-0.1,0.4-0.1,0.8-0.1
	c0.4,0,0.6,0.1,0.8,0.2c0.2,0.1,0.2,0.4,0.2,0.8c0,0.7-0.2,1.2-0.5,1.7c-0.3,0.5-0.8,0.8-1.4,1.1C246,271,245.4,271.1,244.6,271.1z"
	/>
<path class="st5" d="M121.5,416h41c5.8,0,10.5,4.7,10.5,10.5l0,0c0,5.8-4.7,10.5-10.5,10.5h-41c-5.8,0-10.5-4.7-10.5-10.5l0,0
	C111,420.7,115.7,416,121.5,416z"/>
<path class="st6" d="M142.7,440.3c-0.4,0.4-1,0.4-1.4,0l-2.8-2.8c-0.6-0.6-0.2-1.7,0.7-1.7h5.6c0.9,0,1.3,1.1,0.7,1.7L142.7,440.3z"
	/>
<path class="st4" d="M121.3,433c-0.3,0-0.5-0.1-0.7-0.2c-0.2-0.1-0.3-0.3-0.3-0.5v-8.5l-0.5,0.5c-0.1,0-0.1,0.1-0.2,0.1
	c-0.1,0-0.1,0-0.2,0c-0.2,0-0.4-0.1-0.5-0.3c-0.1-0.2-0.2-0.4-0.2-0.6c0-0.1,0-0.3,0.1-0.4c0.1-0.1,0.2-0.3,0.3-0.3l1.9-1.4
	c0.1-0.1,0.1-0.1,0.2-0.1c0.1,0,0.2,0,0.3,0c0.2,0,0.4,0.1,0.6,0.2c0.2,0.1,0.3,0.3,0.3,0.5v10.4c0,0.2-0.1,0.4-0.3,0.5
	C121.8,432.9,121.5,433,121.3,433z M125.4,433c-0.2,0-0.4-0.1-0.6-0.2c-0.2-0.1-0.3-0.3-0.3-0.5v-1.6c0-0.4,0.1-0.8,0.4-1.2
	c0.2-0.4,0.6-0.7,1-1.1c0.4-0.3,0.8-0.7,1.2-1c0.4-0.3,0.8-0.6,1.2-0.9c0.4-0.3,0.7-0.6,1-1c0.3-0.3,0.4-0.7,0.4-1.1
	c0-0.2-0.1-0.4-0.2-0.7c-0.1-0.2-0.3-0.4-0.5-0.5c-0.2-0.1-0.5-0.2-0.8-0.2c-0.4,0-0.7,0.1-1,0.3c-0.3,0.2-0.4,0.6-0.4,1.1
	c0,0.2-0.1,0.4-0.3,0.5c-0.2,0.2-0.5,0.2-0.8,0.2c-0.3,0-0.5-0.1-0.7-0.2c-0.2-0.2-0.3-0.5-0.3-0.9c0-0.6,0.2-1.1,0.5-1.6
	c0.3-0.4,0.7-0.8,1.3-1c0.5-0.2,1.1-0.4,1.7-0.4c0.6,0,1.2,0.1,1.7,0.4c0.5,0.3,1,0.6,1.3,1.1c0.3,0.5,0.5,1.1,0.5,1.7
	c0,0.6-0.1,1.1-0.4,1.5c-0.2,0.5-0.6,0.9-0.9,1.2c-0.4,0.4-0.8,0.7-1.2,1c-0.4,0.3-0.8,0.6-1.2,0.8c-0.4,0.3-0.7,0.5-0.9,0.8
	c-0.2,0.3-0.4,0.5-0.4,0.8v0.4h4.4c0.2,0,0.3,0.1,0.5,0.3c0.1,0.2,0.2,0.4,0.2,0.6s-0.1,0.5-0.2,0.7c-0.1,0.2-0.3,0.3-0.5,0.3H125.4
	z M134.2,434.6c-0.1,0-0.3,0-0.5-0.1c-0.1-0.1-0.2-0.2-0.2-0.4c0-0.1,0-0.1,0-0.2l0.4-0.8c-0.2-0.1-0.3-0.2-0.4-0.4
	c-0.1-0.2-0.2-0.4-0.2-0.6c0-0.3,0.1-0.6,0.3-0.8c0.2-0.2,0.5-0.3,0.8-0.3c0.3,0,0.6,0.1,0.8,0.3c0.2,0.2,0.3,0.5,0.3,0.8
	c0,0,0,0.1,0,0.2c0,0.1,0,0.2-0.1,0.3c-0.1,0.1-0.1,0.4-0.3,0.7c-0.1,0.3-0.3,0.7-0.5,1.2c0,0.1-0.1,0.2-0.2,0.2
	C134.4,434.6,134.3,434.6,134.2,434.6z M140.8,433.1c-0.8,0-1.5-0.1-2.1-0.4c-0.6-0.3-1-0.6-1.3-1.1c-0.3-0.4-0.4-0.9-0.4-1.4
	c0-0.4,0.1-0.6,0.3-0.8c0.2-0.1,0.4-0.2,0.8-0.2c0.4,0,0.7,0.1,0.8,0.2c0.1,0.1,0.2,0.3,0.2,0.5c0,0.3,0.1,0.5,0.2,0.7
	c0.1,0.2,0.3,0.3,0.6,0.4c0.3,0.1,0.5,0.1,0.8,0.1c0.5,0,1-0.1,1.2-0.4c0.3-0.3,0.4-0.7,0.4-1.3v-0.3c0-0.6-0.1-1.1-0.4-1.3
	c-0.3-0.3-0.7-0.4-1.2-0.4h-2.4c-0.3,0-0.5-0.1-0.7-0.2c-0.1-0.1-0.2-0.3-0.2-0.6c0-0.1,0-0.1,0-0.2c0-0.1,0-0.1,0-0.2l0.4-4.2
	c0-0.2,0-0.4,0.1-0.5c0.1-0.1,0.2-0.2,0.3-0.2h4.9c0.2,0,0.4,0.1,0.5,0.3c0.1,0.2,0.2,0.4,0.2,0.6c0,0.2-0.1,0.4-0.2,0.6
	c-0.1,0.2-0.3,0.3-0.5,0.3h-3.6l-0.2,2.6h1.2c0.7,0,1.3,0.1,1.9,0.3c0.6,0.2,1,0.6,1.3,1.1c0.3,0.5,0.5,1.2,0.5,2v0.3
	c0,0.9-0.2,1.6-0.5,2.1c-0.3,0.5-0.8,0.9-1.3,1.2C142.1,433,141.5,433.1,140.8,433.1z M150.2,433.1c-0.7,0-1.3-0.1-1.9-0.4
	c-0.6-0.2-1-0.6-1.3-1.2c-0.3-0.5-0.5-1.3-0.5-2.2V425c0-0.9,0.2-1.6,0.5-2.1c0.3-0.5,0.8-0.9,1.3-1.2c0.6-0.2,1.2-0.4,1.9-0.4
	c0.7,0,1.3,0.1,1.9,0.4c0.6,0.2,1,0.6,1.4,1.2c0.3,0.5,0.5,1.2,0.5,2.1v4.4c0,0.9-0.2,1.6-0.5,2.2c-0.3,0.5-0.8,0.9-1.4,1.2
	C151.5,433,150.9,433.1,150.2,433.1z M150.2,431.3c0.5,0,0.9-0.1,1.2-0.4c0.3-0.3,0.4-0.8,0.4-1.4V425c0-0.6-0.1-1.1-0.4-1.4
	c-0.3-0.3-0.7-0.4-1.2-0.4c-0.5,0-0.9,0.1-1.2,0.4c-0.3,0.3-0.4,0.8-0.4,1.4v4.4c0,0.6,0.1,1.1,0.4,1.4
	C149.2,431.1,149.6,431.3,150.2,431.3z M150.2,428c-0.2,0-0.4-0.1-0.5-0.2c-0.1-0.1-0.2-0.3-0.2-0.5c0-0.2,0.1-0.4,0.2-0.5
	c0.1-0.1,0.3-0.2,0.5-0.2c0.2,0,0.4,0.1,0.5,0.2c0.1,0.1,0.2,0.3,0.2,0.5c0,0.2-0.1,0.4-0.2,0.5C150.6,427.9,150.4,428,150.2,428z
	 M160.9,433.1c-0.8,0-1.4-0.1-2-0.4c-0.6-0.3-1-0.7-1.3-1.2c-0.3-0.5-0.4-1.1-0.4-1.8v-0.3h-0.7c-0.2,0-0.4-0.1-0.5-0.2
	c-0.1-0.1-0.2-0.3-0.2-0.5s0.1-0.4,0.2-0.5c0.1-0.1,0.3-0.2,0.5-0.2h0.7v-1.1h-0.7c-0.2,0-0.4-0.1-0.5-0.2c-0.1-0.1-0.2-0.3-0.2-0.5
	c0-0.2,0.1-0.4,0.2-0.5c0.1-0.1,0.3-0.2,0.5-0.2h0.7V425c0-0.9,0.2-1.6,0.5-2.1c0.3-0.5,0.8-0.9,1.3-1.2c0.6-0.2,1.2-0.4,1.9-0.4
	c0.7,0,1.4,0.1,2,0.4c0.6,0.2,1,0.6,1.4,1.1c0.3,0.5,0.5,1,0.5,1.6c0,0.4-0.1,0.6-0.3,0.8c-0.2,0.1-0.4,0.2-0.8,0.2
	c-0.4,0-0.6,0-0.8-0.1s-0.2-0.3-0.2-0.5c0-0.1,0-0.3-0.1-0.5c0-0.2-0.1-0.4-0.3-0.5c-0.1-0.2-0.3-0.3-0.5-0.4
	c-0.2-0.1-0.5-0.2-0.8-0.2c-0.5,0-1,0.2-1.3,0.5c-0.3,0.3-0.4,0.8-0.4,1.4v0.3h1.5c0.2,0,0.3,0.1,0.5,0.2c0.1,0.1,0.2,0.3,0.2,0.5
	c0,0.2-0.1,0.4-0.2,0.5c-0.1,0.1-0.3,0.2-0.5,0.2h-1.5v1.1h1.5c0.2,0,0.3,0.1,0.5,0.2c0.1,0.1,0.2,0.3,0.2,0.5
	c0,0.2-0.1,0.4-0.2,0.5c-0.1,0.1-0.3,0.2-0.5,0.2h-1.5v0.3c0,0.1,0,0.3,0.1,0.5c0.1,0.2,0.1,0.4,0.3,0.5c0.1,0.2,0.3,0.3,0.5,0.4
	c0.2,0.1,0.5,0.2,0.9,0.2c0.4,0,0.8-0.1,1-0.3c0.2-0.2,0.4-0.4,0.5-0.7c0.1-0.3,0.1-0.5,0.1-0.8c0-0.2,0.1-0.4,0.3-0.5
	c0.2-0.1,0.4-0.1,0.8-0.1c0.4,0,0.6,0.1,0.8,0.2c0.2,0.1,0.2,0.4,0.2,0.8c0,0.7-0.2,1.2-0.5,1.7c-0.3,0.5-0.8,0.8-1.4,1.1
	C162.3,433,161.7,433.1,160.9,433.1z"/>
</svg>
