<svg width="75" height="75" viewBox="0 0 75 75" fill="none" xmlns="http://www.w3.org/2000/svg">
<rect width="75" height="75" rx="10" fill="#212121" fill-opacity="0.03"/>
<g clip-path="url(#clip0_844_427)">
<path d="M47.0111 23.4908C45.5347 21.8079 42.8658 21.0864 39.4514 21.0864H29.542C29.2042 21.0864 28.8774 21.207 28.6205 21.4263C28.3636 21.6457 28.1934 21.9495 28.1405 22.2831L24.0144 48.4518C23.9324 48.9679 24.3319 49.4351 24.855 49.4351H30.9727L32.5091 39.6899L32.4614 39.995C32.5709 39.3062 33.16 38.7981 33.8577 38.7981H36.7648C42.4758 38.7981 46.9477 36.4784 48.2539 29.7681C48.2927 29.5696 48.3263 29.3764 48.3554 29.1877C48.1905 29.1004 48.1905 29.1004 48.3554 29.1877C48.7443 26.7075 48.3527 25.0192 47.0111 23.4908Z" fill="#27346A"/>
<path d="M34.85 28.2943C35.0172 28.2146 35.2001 28.1734 35.3854 28.1735H43.1542C44.0741 28.1735 44.9322 28.2333 45.7163 28.3595C45.9357 28.3945 46.154 28.4363 46.3708 28.4848C46.6781 28.5526 46.9819 28.6356 47.281 28.7335C47.6665 28.8622 48.0255 29.0121 48.3555 29.1877C48.7443 26.7066 48.3527 25.0192 47.0111 23.4908C45.5338 21.8079 42.8658 21.0864 39.4514 21.0864H29.5412C28.8434 21.0864 28.2498 21.5944 28.1405 22.2831L24.0144 48.4509C23.9324 48.9677 24.3319 49.4344 24.8541 49.4344H30.9727L34.1603 29.2204C34.1916 29.0217 34.2708 28.8336 34.3909 28.6723C34.5111 28.5109 34.6686 28.3812 34.85 28.2943Z" fill="#27346A"/>
<path d="M48.2539 29.7681C46.9476 36.4775 42.4759 38.7981 36.7647 38.7981H33.8568C33.1591 38.7981 32.5699 39.3062 32.4615 39.9951L30.5501 52.1121C30.4786 52.5637 30.8279 52.973 31.2848 52.973H36.4419C36.7373 52.9729 37.023 52.8674 37.2476 52.6755C37.4722 52.4836 37.6209 52.2179 37.6671 51.9261L37.7173 51.6633L38.6893 45.5032L38.7519 45.1627C38.7981 44.871 38.9468 44.6052 39.1714 44.4133C39.396 44.2214 39.6816 44.116 39.977 44.1159H40.7488C45.7446 44.1159 49.6563 42.0863 50.7994 36.2165C51.2765 33.7635 51.0296 31.7155 49.7674 30.277C49.3846 29.8413 48.9092 29.4815 48.3553 29.1877C48.3253 29.3774 48.2928 29.5696 48.2539 29.7681Z" fill="#2790C3"/>
<path d="M46.9884 28.6426C46.7847 28.5832 46.5791 28.5305 46.3719 28.4848C46.155 28.4371 45.9367 28.3956 45.7174 28.3604C44.9324 28.2333 44.075 28.1733 43.1542 28.1733H35.3864C35.201 28.1729 35.0179 28.2145 34.851 28.2951C34.6694 28.3818 34.5117 28.5114 34.3915 28.6728C34.2713 28.8341 34.1922 29.0224 34.1612 29.2212L32.5101 39.6898L32.4624 39.995C32.571 39.3062 33.1602 38.7981 33.8579 38.7981H36.7659C42.4769 38.7981 46.9487 36.4784 48.2549 29.768C48.2938 29.5696 48.3265 29.3773 48.3564 29.1877C48.0256 29.0131 47.6676 28.8622 47.282 28.7343C47.1847 28.702 47.0869 28.6715 46.9885 28.6426" fill="#1F264F"/>
</g>
<defs>
<clipPath id="clip0_844_427">
<rect width="27.1258" height="32" fill="white" transform="translate(24 21)"/>
</clipPath>
</defs>
</svg>
