<svg width="20" height="17" viewBox="0 0 20 17" fill="none" xmlns="http://www.w3.org/2000/svg">
<g clip-path="url(#clip0_765_253)">
<path d="M14.4643 0C12.6205 0 11.0063 0.78625 10 2.11526C8.99375 0.78625 7.37946 0 5.53571 0C4.06806 0.00164044 2.66099 0.580533 1.6232 1.60967C0.585411 2.63881 0.00165423 4.03416 0 5.48958C0 11.6875 9.26696 16.7043 9.66161 16.9115C9.76562 16.9669 9.88189 16.996 10 16.996C10.1181 16.996 10.2344 16.9669 10.3384 16.9115C10.733 16.7043 20 11.6875 20 5.48958C19.9983 4.03416 19.4146 2.63881 18.3768 1.60967C17.339 0.580533 15.9319 0.00164044 14.4643 0ZM10 15.4771C8.36964 14.535 1.42857 10.2434 1.42857 5.48958C1.42999 4.40981 1.86316 3.37466 2.63309 2.61115C3.40302 1.84763 4.44687 1.41807 5.53571 1.41667C7.27232 1.41667 8.73036 2.33396 9.33929 3.80729C9.3931 3.93721 9.48465 4.04833 9.60229 4.12653C9.71994 4.20473 9.85837 4.24648 10 4.24648C10.1416 4.24648 10.2801 4.20473 10.3977 4.12653C10.5154 4.04833 10.6069 3.93721 10.6607 3.80729C11.2696 2.3313 12.7277 1.41667 14.4643 1.41667C15.5531 1.41807 16.597 1.84763 17.3669 2.61115C18.1368 3.37466 18.57 4.40981 18.5714 5.48958C18.5714 10.2363 11.6286 14.5341 10 15.4771Z" fill="#F9F9F9"/>
</g>
<defs>
<clipPath id="clip0_765_253">
<rect width="20" height="17" fill="white"/>
</clipPath>
</defs>
</svg>
