<svg width="20" height="18" viewBox="0 0 20 18" fill="none" xmlns="http://www.w3.org/2000/svg">
<path d="M20 5.53571C20 11.7857 10.733 16.8446 10.3384 17.0536C10.2344 17.1095 10.1181 17.1388 10 17.1388C9.88189 17.1388 9.76562 17.1095 9.66161 17.0536C9.26696 16.8446 0 11.7857 0 5.53571C0.00165423 4.06806 0.585411 2.66099 1.6232 1.6232C2.66099 0.585411 4.06806 0.00165423 5.53571 0C7.37946 0 8.99375 0.792857 10 2.13304C11.0063 0.792857 12.6205 0 14.4643 0C15.9319 0.00165423 17.339 0.585411 18.3768 1.6232C19.4146 2.66099 19.9983 4.06806 20 5.53571Z" fill="#E93636"/>
</svg>
