<svg width="90" height="129" viewBox="0 0 90 129" fill="none" xmlns="http://www.w3.org/2000/svg">
<g clip-path="url(#clip0_734_133)">
<path fill-rule="evenodd" clip-rule="evenodd" d="M10.2544 14.9684C10.2544 13.6547 10.7774 12.3948 11.7082 11.4659C12.6391 10.537 13.9016 10.0152 15.2181 10.0152H74.7817C76.0981 10.0152 77.3607 10.537 78.2915 11.4659C79.2224 12.3948 79.7453 13.6547 79.7453 14.9684V114.032C79.7453 115.345 79.2224 116.605 78.2915 117.534C77.3607 118.463 76.0981 118.985 74.7817 118.985H15.2181C13.9016 118.985 12.6391 118.463 11.7082 117.534C10.7774 116.605 10.2544 115.345 10.2544 114.032V14.9684ZM15.2181 0.108856C11.2687 0.108856 7.48118 1.67441 4.6886 4.4611C1.89601 7.2478 0.327148 11.0274 0.327148 14.9684V114.032C0.327148 117.973 1.89601 121.752 4.6886 124.539C7.48118 127.326 11.2687 128.891 15.2181 128.891H74.7817C78.731 128.891 82.5186 127.326 85.3112 124.539C88.1037 121.752 89.6726 117.973 89.6726 114.032V14.9684C89.6726 11.0274 88.1037 7.2478 85.3112 4.4611C82.5186 1.67441 78.731 0.108856 74.7817 0.108856H15.2181ZM30.109 105.611C29.1875 105.611 28.3037 105.977 27.6521 106.627C27.0005 107.277 26.6344 108.159 26.6344 109.078C26.6344 109.998 27.0005 110.88 27.6521 111.53C28.3037 112.18 29.1875 112.546 30.109 112.546H59.8908C60.8123 112.546 61.6961 112.18 62.3477 111.53C62.9993 110.88 63.3653 109.998 63.3653 109.078C63.3653 108.159 62.9993 107.277 62.3477 106.627C61.6961 105.977 60.8123 105.611 59.8908 105.611H30.109Z" fill="#E93636" fill-opacity="0.9"/>
</g>
<defs>
<clipPath id="clip0_734_133">
<rect width="90" height="129" fill="white"/>
</clipPath>
</defs>
</svg>
