<svg width="139" height="139" viewBox="0 0 139 139" fill="none" xmlns="http://www.w3.org/2000/svg">
<path d="M101.824 13.6753C92.0058 7.9767 80.8522 4.98324 69.5 5.00007C33.8766 5.00007 5 33.8767 5 69.5C5 105.123 33.8766 134 69.5 134C105.123 134 134 105.123 134 69.5C134 57.803 130.885 46.8283 125.441 37.3726" stroke="#E93636" stroke-opacity="0.9" stroke-width="9" stroke-linecap="round" stroke-linejoin="round"/>
<path d="M95.1386 43.8614C95.1386 43.8614 84.2123 73.0315 79.1748 78.0689C76.7555 80.4882 73.4743 81.8473 70.0529 81.8473C66.6315 81.8473 63.3503 80.4882 60.931 78.0689C58.5117 75.6496 57.1526 72.3684 57.1526 68.947C57.1526 65.5256 58.5117 62.2444 60.931 59.8251C65.9685 54.7877 95.1386 43.8614 95.1386 43.8614Z" stroke="#E93636" stroke-opacity="0.9" stroke-width="9" stroke-linejoin="round"/>
</svg>
