<svg width="75" height="75" viewBox="0 0 75 75" fill="none" xmlns="http://www.w3.org/2000/svg">
<rect width="75" height="75" rx="10" fill="#212121" fill-opacity="0.03"/>
<path d="M57.0801 35.1445L49.2219 25.9887C48.9628 25.6791 48.6389 25.4302 48.2731 25.2593C47.9073 25.0885 47.5084 25 47.1047 25H18.7609C18.0286 25 17.3264 25.2909 16.8086 25.8086C16.2909 26.3264 16 27.0286 16 27.7609V47.087C16 47.8192 16.2909 48.5215 16.8086 49.0392C17.3264 49.557 18.0286 49.8479 18.7609 49.8479H21.6943C21.9984 51.0356 22.6892 52.0884 23.6577 52.8402C24.6262 53.5919 25.8174 54 27.0435 54C28.2696 54 29.4608 53.5919 30.4293 52.8402C31.3978 52.0884 32.0886 51.0356 32.3927 49.8479H41.0204C41.3245 51.0356 42.0153 52.0884 42.9838 52.8402C43.9524 53.5919 45.1435 54 46.3696 54C47.5957 54 48.7869 53.5919 49.7554 52.8402C50.7239 52.0884 51.4147 51.0356 51.7188 49.8479H54.6522C55.3845 49.8479 56.0867 49.557 56.6045 49.0392C57.1222 48.5215 57.4131 47.8192 57.4131 47.087V36.0435C57.4131 35.7137 57.2949 35.3947 57.0801 35.1445ZM53.0285 34.6631H43.6087V27.7609H47.1047L53.0285 34.6631ZM31.1848 34.6631V27.7609H40.8479V34.6631H31.1848ZM28.4239 27.7609V34.6631H18.7609V27.7609H28.4239ZM27.0435 51.2283C26.4974 51.2283 25.9637 51.0664 25.5096 50.763C25.0556 50.4596 24.7017 50.0285 24.4928 49.524C24.2838 49.0195 24.2291 48.4644 24.3357 47.9288C24.4422 47.3932 24.7051 46.9013 25.0913 46.5152C25.4774 46.1291 25.9693 45.8661 26.5049 45.7596C27.0404 45.6531 27.5956 45.7077 28.1 45.9167C28.6045 46.1257 29.0357 46.4795 29.3391 46.9336C29.6424 47.3876 29.8044 47.9214 29.8044 48.4674C29.8044 49.1997 29.5135 49.9019 28.9957 50.4197C28.478 50.9374 27.7757 51.2283 27.0435 51.2283ZM46.3696 51.2283C45.8236 51.2283 45.2898 51.0664 44.8357 50.763C44.3817 50.4596 44.0279 50.0285 43.8189 49.524C43.6099 49.0195 43.5553 48.4644 43.6618 47.9288C43.7683 47.3932 44.0313 46.9013 44.4174 46.5152C44.8035 46.1291 45.2954 45.8661 45.831 45.7596C46.3665 45.6531 46.9217 45.7077 47.4262 45.9167C47.9306 46.1257 48.3618 46.4795 48.6652 46.9336C48.9686 47.3876 49.1305 47.9214 49.1305 48.4674C49.1305 49.1997 48.8396 49.9019 48.3218 50.4197C47.8041 50.9374 47.1018 51.2283 46.3696 51.2283ZM51.7188 47.087C51.4147 45.8992 50.7239 44.8465 49.7554 44.0947C48.7869 43.3429 47.5957 42.9349 46.3696 42.9349C45.1435 42.9349 43.9524 43.3429 42.9838 44.0947C42.0153 44.8465 41.3245 45.8992 41.0204 47.087H32.3927C32.0886 45.8992 31.3978 44.8465 30.4293 44.0947C29.4608 43.3429 28.2696 42.9349 27.0435 42.9349C25.8174 42.9349 24.6262 43.3429 23.6577 44.0947C22.6892 44.8465 21.9984 45.8992 21.6943 47.087H18.7609V37.4239H54.6522V47.087H51.7188Z" fill="#212121" fill-opacity="0.9"/>
</svg>
