<?xml version="1.0" encoding="utf-8"?>
<!-- Generator: Adobe Illustrator 23.1.0, SVG Export Plug-In . SVG Version: 6.00 Build 0)  -->
<svg version="1.1" id="Capa_1" xmlns="http://www.w3.org/2000/svg" xmlns:xlink="http://www.w3.org/1999/xlink" x="0px" y="0px"
	 viewBox="0 0 75 75" style="enable-background:new 0 0 75 75;" xml:space="preserve">
<style type="text/css">
	.st0{fill:#212121;fill-opacity:0.9;}
	.st1{fill:#F9F9F9;}
</style>
<path class="st0" d="M10,0h55c5.5,0,10,4.5,10,10v55c0,5.5-4.5,10-10,10H10C4.5,75,0,70.5,0,65V10C0,4.5,4.5,0,10,0z"/>
<path class="st1" d="M57.1,35.1L49.2,26c-0.3-0.3-0.6-0.6-0.9-0.7c-0.4-0.2-0.8-0.3-1.2-0.3H18.8c-0.7,0-1.4,0.3-2,0.8
	c-0.5,0.5-0.8,1.2-0.8,2v19.3c0,0.7,0.3,1.4,0.8,2c0.5,0.5,1.2,0.8,2,0.8h2.9c0.3,1.2,1,2.2,2,3c1,0.8,2.2,1.2,3.4,1.2
	c1.2,0,2.4-0.4,3.4-1.2c1-0.8,1.7-1.8,2-3H41c0.3,1.2,1,2.2,2,3c1,0.8,2.2,1.2,3.4,1.2c1.2,0,2.4-0.4,3.4-1.2c1-0.8,1.7-1.8,2-3h2.9
	c0.7,0,1.4-0.3,2-0.8c0.5-0.5,0.8-1.2,0.8-2V36C57.4,35.7,57.3,35.4,57.1,35.1z M53,34.7h-9.4v-6.9h3.5L53,34.7z M31.2,34.7v-6.9
	h9.7v6.9H31.2z M28.4,27.8v6.9h-9.7v-6.9H28.4z M27,51.2c-0.5,0-1.1-0.2-1.5-0.5c-0.5-0.3-0.8-0.7-1-1.2c-0.2-0.5-0.3-1.1-0.2-1.6
	c0.1-0.5,0.4-1,0.8-1.4c0.4-0.4,0.9-0.6,1.4-0.8c0.5-0.1,1.1-0.1,1.6,0.2c0.5,0.2,0.9,0.6,1.2,1c0.3,0.5,0.5,1,0.5,1.5
	c0,0.7-0.3,1.4-0.8,2C28.5,50.9,27.8,51.2,27,51.2z M46.4,51.2c-0.5,0-1.1-0.2-1.5-0.5c-0.5-0.3-0.8-0.7-1-1.2
	c-0.2-0.5-0.3-1.1-0.2-1.6c0.1-0.5,0.4-1,0.8-1.4c0.4-0.4,0.9-0.6,1.4-0.8c0.5-0.1,1.1-0.1,1.6,0.2c0.5,0.2,0.9,0.6,1.2,1
	c0.3,0.5,0.5,1,0.5,1.5c0,0.7-0.3,1.4-0.8,2C47.8,50.9,47.1,51.2,46.4,51.2z M51.7,47.1c-0.3-1.2-1-2.2-2-3c-1-0.8-2.2-1.2-3.4-1.2
	c-1.2,0-2.4,0.4-3.4,1.2c-1,0.8-1.7,1.8-2,3h-8.6c-0.3-1.2-1-2.2-2-3s-2.2-1.2-3.4-1.2c-1.2,0-2.4,0.4-3.4,1.2s-1.7,1.8-2,3h-2.9
	v-9.7h35.9v9.7H51.7z"/>
</svg>
