<svg width="75" height="75" viewBox="0 0 75 75" fill="none" xmlns="http://www.w3.org/2000/svg">
<g clip-path="url(#clip0_844_442)">
<path d="M38.3416 34.0946C38.3137 36.3145 40.306 37.5533 41.8068 38.2899C43.3488 39.0455 43.8667 39.5302 43.8606 40.206C43.8491 41.2402 42.6306 41.6967 41.4904 41.7144C39.5012 41.7455 38.3445 41.1735 37.425 40.741L36.7083 44.1181C37.6309 44.5463 39.3392 44.9196 41.1107 44.936C45.269 44.936 47.9894 42.8688 48.0042 39.6636C48.0205 35.5957 42.4174 35.3705 42.4557 33.5523C42.4689 33.001 42.9913 32.4127 44.1359 32.2631C44.7024 32.1875 46.2664 32.1297 48.0396 32.952L48.7355 29.6846C47.782 29.3349 46.5564 29 45.0305 29C41.1166 29 38.3638 31.0955 38.3416 34.0946ZM55.4229 29.2815C54.6636 29.2815 54.0237 29.7276 53.7381 30.4121L47.7982 44.696H51.9535L52.7803 42.3945H57.858L58.3376 44.696H62L58.8041 29.2815H55.4229ZM56.0042 33.4455L57.2034 39.2339H53.9192L56.0042 33.4455ZM33.3036 29.2817L30.0283 44.6958H33.9879L37.2617 29.2813H33.3036M27.446 29.2813L23.3246 39.7732L21.6575 30.8524C21.4619 29.8565 20.6894 29.2815 19.8315 29.2815H13.0944L13 29.7291C14.3831 30.0314 15.9545 30.5189 16.9066 31.0405C17.4892 31.3592 17.6554 31.6377 17.8468 32.3949L21.0044 44.696H25.1888L31.6039 29.2815L27.446 29.2813Z" fill="url(#paint0_linear_844_442)"/>
</g>
<rect width="75" height="75" rx="10" fill="#212121" fill-opacity="0.03"/>
<defs>
<linearGradient id="paint0_linear_844_442" x1="2265.73" y1="76.9037" x2="2312.18" y2="-1559.73" gradientUnits="userSpaceOnUse">
<stop stop-color="#222357"/>
<stop offset="1" stop-color="#254AA5"/>
</linearGradient>
<clipPath id="clip0_844_442">
<rect width="49" height="16" fill="white" transform="translate(13 29)"/>
</clipPath>
</defs>
</svg>
