<svg width="17" height="10" viewBox="0 0 17 10" fill="none" xmlns="http://www.w3.org/2000/svg">
<g clip-path="url(#clip0_765_232)">
<path d="M0 9.28571C0 9.09627 0.0746279 8.91459 0.207466 8.78064C0.340304 8.64668 0.520472 8.57143 0.708333 8.57143H4.95833C5.14619 8.57143 5.32636 8.64668 5.4592 8.78064C5.59204 8.91459 5.66667 9.09627 5.66667 9.28571C5.66667 9.47515 5.59204 9.65684 5.4592 9.79079C5.32636 9.92475 5.14619 10 4.95833 10H0.708333C0.520472 10 0.340304 9.92475 0.207466 9.79079C0.0746279 9.65684 0 9.47515 0 9.28571ZM0 5C0 4.81056 0.0746279 4.62888 0.207466 4.49492C0.340304 4.36097 0.520472 4.28571 0.708333 4.28571H10.625C10.8129 4.28571 10.993 4.36097 11.1259 4.49492C11.2587 4.62888 11.3333 4.81056 11.3333 5C11.3333 5.18944 11.2587 5.37112 11.1259 5.50508C10.993 5.63903 10.8129 5.71429 10.625 5.71429H0.708333C0.520472 5.71429 0.340304 5.63903 0.207466 5.50508C0.0746279 5.37112 0 5.18944 0 5ZM0 0.714286C0 0.524845 0.0746279 0.343164 0.207466 0.20921C0.340304 0.075255 0.520472 0 0.708333 0H16.2917C16.4795 0 16.6597 0.075255 16.7925 0.20921C16.9254 0.343164 17 0.524845 17 0.714286C17 0.903726 16.9254 1.08541 16.7925 1.21936C16.6597 1.35332 16.4795 1.42857 16.2917 1.42857H0.708333C0.520472 1.42857 0.340304 1.35332 0.207466 1.21936C0.0746279 1.08541 0 0.903726 0 0.714286Z" fill="#212121" fill-opacity="0.5"/>
</g>
<defs>
<clipPath id="clip0_765_232">
<rect width="17" height="10" fill="white"/>
</clipPath>
</defs>
</svg>
