<svg width="75" height="75" viewBox="0 0 75 75" fill="none" xmlns="http://www.w3.org/2000/svg">
<rect width="75" height="75" rx="10" fill="#212121" fill-opacity="0.03"/>
<path d="M24.5791 38.6541V36.737H21.5264V33.6844H31.2416L35.5687 30.6317H40.8987L39.2319 26.0527H35.2635V23H41.3688L43.0356 27.579H49.0005V32.158H44.7023L46.9247 38.2664C48.6109 38.32 50.2184 38.9924 51.4407 40.1552C52.663 41.3181 53.4146 42.8902 53.5521 44.5716C53.6896 46.2531 53.2034 47.9264 52.1863 49.2724C51.1692 50.6184 49.6923 51.543 48.0371 51.8698C46.382 52.1967 44.6645 51.903 43.212 51.0447C41.7596 50.1863 40.6739 48.8235 40.1619 47.216C39.6499 45.6084 39.7474 43.8687 40.4359 42.3285C41.1244 40.7883 42.3556 39.5553 43.8949 38.8647L42.0083 33.6844H40.5629L38.1482 42.644L38.1452 42.6424L38.1482 42.6501L33.6837 44.2756C33.8448 45.5612 33.6391 46.8661 33.0902 48.0397C32.5413 49.2132 31.6717 50.2077 30.5818 50.9081C29.4918 51.6085 28.226 51.9864 26.9304 51.9981C25.6349 52.0098 24.3625 51.6548 23.2601 50.9741C22.1577 50.2935 21.2703 49.3149 20.7003 48.1514C20.1304 46.9879 19.9011 45.6869 20.039 44.3986C20.177 43.1104 20.6764 41.8874 21.4798 40.871C22.2831 39.8545 23.3576 39.086 24.5791 38.6541ZM27.6318 38.3046C28.6444 38.4179 29.6192 38.7552 30.4853 39.2919C31.3515 39.8286 32.0874 40.5513 32.6397 41.4076L35.6267 40.3193L37.4049 33.6844H36.57L32.2108 36.737H27.6318V38.3046ZM26.8686 48.9477C27.8806 48.9477 28.8512 48.5457 29.5668 47.8301C30.2824 47.1145 30.6845 46.1439 30.6845 45.1319C30.6845 44.1199 30.2824 43.1493 29.5668 42.4337C28.8512 41.7181 27.8806 41.316 26.8686 41.316C25.8566 41.316 24.886 41.7181 24.1704 42.4337C23.4548 43.1493 23.0528 44.1199 23.0528 45.1319C23.0528 46.1439 23.4548 47.1145 24.1704 47.8301C24.886 48.5457 25.8566 48.9477 26.8686 48.9477ZM46.711 48.9477C47.723 48.9477 48.6936 48.5457 49.4092 47.8301C50.1248 47.1145 50.5268 46.1439 50.5268 45.1319C50.5268 44.1199 50.1248 43.1493 49.4092 42.4337C48.6936 41.7181 47.723 41.316 46.711 41.316C45.699 41.316 44.7284 41.7181 44.0128 42.4337C43.2972 43.1493 42.8952 44.1199 42.8952 45.1319C42.8952 46.1439 43.2972 47.1145 44.0128 47.8301C44.7284 48.5457 45.699 48.9477 46.711 48.9477Z" fill="#212121" fill-opacity="0.9"/>
</svg>
