<?xml version="1.0" encoding="utf-8"?>
<!-- Generator: Adobe Illustrator 23.1.0, SVG Export Plug-In . SVG Version: 6.00 Build 0)  -->
<svg version="1.1" id="Capa_1" xmlns="http://www.w3.org/2000/svg" xmlns:xlink="http://www.w3.org/1999/xlink" x="0px" y="0px"
	 viewBox="0 0 75 75" style="enable-background:new 0 0 75 75;" xml:space="preserve">
<style type="text/css">
	.st0{fill:#212121;fill-opacity:0.9;}
	.st1{fill:#F9F9F9;}
</style>
<path class="st0" d="M10,0h55c5.5,0,10,4.5,10,10v55c0,5.5-4.5,10-10,10H10C4.5,75,0,70.5,0,65V10C0,4.5,4.5,0,10,0z"/>
<path class="st1" d="M24.6,38.7v-1.9h-3.1v-3.1h9.7l4.3-3.1h5.3l-1.7-4.6h-4V23h6.1l1.7,4.6h6v4.6h-4.3l2.2,6.1
	c1.7,0.1,3.3,0.7,4.5,1.9c1.2,1.2,2,2.7,2.1,4.4c0.1,1.7-0.3,3.4-1.4,4.7c-1,1.3-2.5,2.3-4.1,2.6c-1.7,0.3-3.4,0-4.8-0.8
	c-1.5-0.9-2.5-2.2-3.1-3.8c-0.5-1.6-0.4-3.3,0.3-4.9c0.7-1.5,1.9-2.8,3.5-3.5L42,33.7h-1.4l-2.4,9l0,0l0,0l-4.5,1.6
	c0.2,1.3,0,2.6-0.6,3.8c-0.5,1.2-1.4,2.2-2.5,2.9c-1.1,0.7-2.4,1.1-3.7,1.1c-1.3,0-2.6-0.3-3.7-1c-1.1-0.7-2-1.7-2.6-2.8
	c-0.6-1.2-0.8-2.5-0.7-3.8c0.1-1.3,0.6-2.5,1.4-3.5C22.3,39.9,23.4,39.1,24.6,38.7z M27.6,38.3c1,0.1,2,0.5,2.9,1
	c0.9,0.5,1.6,1.3,2.2,2.1l3-1.1l1.8-6.6h-0.8l-4.4,3.1h-4.6V38.3z M26.9,48.9c1,0,2-0.4,2.7-1.1c0.7-0.7,1.1-1.7,1.1-2.7
	s-0.4-2-1.1-2.7c-0.7-0.7-1.7-1.1-2.7-1.1c-1,0-2,0.4-2.7,1.1c-0.7,0.7-1.1,1.7-1.1,2.7s0.4,2,1.1,2.7
	C24.9,48.5,25.9,48.9,26.9,48.9z M46.7,48.9c1,0,2-0.4,2.7-1.1c0.7-0.7,1.1-1.7,1.1-2.7s-0.4-2-1.1-2.7c-0.7-0.7-1.7-1.1-2.7-1.1
	c-1,0-2,0.4-2.7,1.1c-0.7,0.7-1.1,1.7-1.1,2.7s0.4,2,1.1,2.7C44.7,48.5,45.7,48.9,46.7,48.9z"/>
</svg>
