<?xml version="1.0" encoding="utf-8"?>
<!-- Generator: Adobe Illustrator 23.1.0, SVG Export Plug-In . SVG Version: 6.00 Build 0)  -->
<svg version="1.1" id="Capa_1" xmlns="http://www.w3.org/2000/svg" xmlns:xlink="http://www.w3.org/1999/xlink" x="0px" y="0px"
	 viewBox="0 0 75 75" style="enable-background:new 0 0 75 75;" xml:space="preserve">
<style type="text/css">
	.st0{fill:#212121;fill-opacity:3.000000e-02;}
	.st1{fill:#212121;fill-opacity:0.9;}
</style>
<path class="st0" d="M10,0h55c5.5,0,10,4.5,10,10v55c0,5.5-4.5,10-10,10H10C4.5,75,0,70.5,0,65V10C0,4.5,4.5,0,10,0z"/>
<path class="st1" d="M57,36.5l-11.3-4L41,26.6c-0.4-0.5-0.9-0.9-1.5-1.2c-0.6-0.3-1.2-0.4-1.9-0.4H25.9c-0.7,0-1.4,0.2-2.1,0.5
	c-0.6,0.3-1.2,0.8-1.6,1.4l-4,5.8c-0.8,1.2-1.3,2.6-1.3,4.1v11.4c0,0.4,0.2,0.8,0.4,1c0.3,0.3,0.6,0.4,1,0.4h3.1
	c0.3,1.2,1,2.3,2.1,3.1c1,0.8,2.3,1.2,3.6,1.2s2.6-0.4,3.6-1.2s1.8-1.9,2.1-3.1H42c0.3,1.2,1,2.3,2.1,3.1c1,0.8,2.3,1.2,3.6,1.2
	s2.6-0.4,3.6-1.2s1.8-1.9,2.1-3.1h3.1c0.4,0,0.8-0.2,1-0.4c0.3-0.3,0.4-0.6,0.4-1V37.9c0-0.3-0.1-0.6-0.3-0.8
	C57.6,36.8,57.3,36.6,57,36.5z M27.3,51.1c-0.6,0-1.1-0.2-1.6-0.5s-0.9-0.8-1.1-1.3s-0.3-1.1-0.2-1.7c0.1-0.6,0.4-1.1,0.8-1.5
	s0.9-0.7,1.5-0.8s1.2-0.1,1.7,0.2c0.5,0.2,1,0.6,1.3,1.1s0.5,1,0.5,1.6c0,0.8-0.3,1.5-0.9,2C28.8,50.8,28,51.1,27.3,51.1z
	 M47.8,51.1c-0.6,0-1.1-0.2-1.6-0.5s-0.9-0.8-1.1-1.3c-0.2-0.5-0.3-1.1-0.2-1.7s0.4-1.1,0.8-1.5c0.4-0.4,0.9-0.7,1.5-0.8
	s1.2-0.1,1.7,0.2c0.5,0.2,1,0.6,1.3,1.1s0.5,1,0.5,1.6c0,0.8-0.3,1.5-0.9,2C49.3,50.8,48.5,51.1,47.8,51.1z M55.1,46.7h-1.7
	c-0.3-1.2-1-2.3-2.1-3.1c-1-0.8-2.3-1.2-3.6-1.2s-2.6,0.4-3.6,1.2s-1.8,1.9-2.1,3.1h-9.2c-0.3-1.2-1-2.3-2.1-3.1
	c-1-0.8-2.3-1.2-3.6-1.2s-2.6,0.4-3.6,1.2s-1.8,1.9-2.1,3.1h-1.7v-10c0-0.9,0.3-1.7,0.8-2.4l4-5.8c0.1-0.2,0.3-0.4,0.5-0.5
	s0.4-0.2,0.7-0.2h11.7c0.2,0,0.4,0,0.6,0.1c0.2,0.1,0.4,0.2,0.5,0.4l5,6.2c0.2,0.2,0.4,0.4,0.7,0.5l10.7,3.8v7.9H55.1z"/>
</svg>
