<svg width="42" height="42" viewBox="0 0 42 42" fill="none" xmlns="http://www.w3.org/2000/svg">
<g clip-path="url(#clip0_706_1304)">
<path d="M21 0C16.8466 0 12.7865 1.23163 9.33303 3.53914C5.8796 5.84665 3.18798 9.1264 1.59854 12.9636C0.00909897 16.8009 -0.406771 21.0233 0.403518 25.0969C1.21381 29.1705 3.21386 32.9123 6.15077 35.8492C9.08767 38.7861 12.8295 40.7862 16.9031 41.5965C20.9767 42.4068 25.1991 41.9909 29.0364 40.4015C32.8736 38.812 36.1534 36.1204 38.4609 32.667C40.7684 29.2135 42 25.1534 42 21C41.9941 15.4323 39.7797 10.0942 35.8427 6.15725C31.9058 2.22026 26.5677 0.00587963 21 0ZM21 38.7692C17.4856 38.7692 14.0501 37.7271 11.128 35.7746C8.20582 33.8221 5.92829 31.0469 4.58338 27.8C3.23847 24.5531 2.88658 20.9803 3.57221 17.5334C4.25784 14.0865 5.95019 10.9203 8.43526 8.43526C10.9203 5.95018 14.0865 4.25783 17.5334 3.5722C20.9803 2.88657 24.5531 3.23846 27.8 4.58337C31.0469 5.92828 33.8221 8.20581 35.7746 11.1279C37.7271 14.0501 38.7692 17.4856 38.7692 21C38.7639 25.711 36.8901 30.2276 33.5588 33.5588C30.2276 36.8901 25.7111 38.7639 21 38.7692ZM33.9231 21C33.9231 21.4284 33.7529 21.8393 33.4499 22.1422C33.147 22.4452 32.7361 22.6154 32.3077 22.6154H21C20.5716 22.6154 20.1607 22.4452 19.8578 22.1422C19.5548 21.8393 19.3846 21.4284 19.3846 21V9.69231C19.3846 9.26388 19.5548 8.853 19.8578 8.55006C20.1607 8.24711 20.5716 8.07692 21 8.07692C21.4284 8.07692 21.8393 8.24711 22.1423 8.55006C22.4452 8.853 22.6154 9.26388 22.6154 9.69231V19.3846H32.3077C32.7361 19.3846 33.147 19.5548 33.4499 19.8577C33.7529 20.1607 33.9231 20.5716 33.9231 21Z" fill="#212121"/>
</g>
<defs>
<clipPath id="clip0_706_1304">
<rect width="42" height="42" fill="white"/>
</clipPath>
</defs>
</svg>
