<svg width="39" height="39" viewBox="0 0 39 39" fill="none" xmlns="http://www.w3.org/2000/svg">
<path d="M28.5687 22.2209C29.0498 22.2209 29.5112 22.0298 29.8514 21.6896C30.1916 21.3494 30.3827 20.8881 30.3827 20.407C30.3827 19.9259 30.1916 19.4645 29.8514 19.1243C29.5112 18.7841 29.0498 18.593 28.5687 18.593C28.0876 18.593 27.6262 18.7841 27.2861 19.1243C26.9459 19.4645 26.7548 19.9259 26.7548 20.407C26.7548 20.8881 26.9459 21.3494 27.2861 21.6896C27.6262 22.0298 28.0876 22.2209 28.5687 22.2209ZM28.5687 29.4767C29.0498 29.4767 29.5112 29.2856 29.8514 28.9454C30.1916 28.6053 30.3827 28.1439 30.3827 27.6628C30.3827 27.1817 30.1916 26.7203 29.8514 26.3801C29.5112 26.0399 29.0498 25.8488 28.5687 25.8488C28.0876 25.8488 27.6262 26.0399 27.2861 26.3801C26.9459 26.7203 26.7548 27.1817 26.7548 27.6628C26.7548 28.1439 26.9459 28.6053 27.2861 28.9454C27.6262 29.2856 28.0876 29.4767 28.5687 29.4767ZM21.3129 20.407C21.3129 20.8881 21.1218 21.3494 20.7816 21.6896C20.4414 22.0298 19.98 22.2209 19.499 22.2209C19.0179 22.2209 18.5565 22.0298 18.2163 21.6896C17.8761 21.3494 17.685 20.8881 17.685 20.407C17.685 19.9259 17.8761 19.4645 18.2163 19.1243C18.5565 18.7841 19.0179 18.593 19.499 18.593C19.98 18.593 20.4414 18.7841 20.7816 19.1243C21.1218 19.4645 21.3129 19.9259 21.3129 20.407ZM21.3129 27.6628C21.3129 28.1439 21.1218 28.6053 20.7816 28.9454C20.4414 29.2856 19.98 29.4767 19.499 29.4767C19.0179 29.4767 18.5565 29.2856 18.2163 28.9454C17.8761 28.6053 17.685 28.1439 17.685 27.6628C17.685 27.1817 17.8761 26.7203 18.2163 26.3801C18.5565 26.0399 19.0179 25.8488 19.499 25.8488C19.98 25.8488 20.4414 26.0399 20.7816 26.3801C21.1218 26.7203 21.3129 27.1817 21.3129 27.6628ZM10.4292 22.2209C10.9103 22.2209 11.3717 22.0298 11.7118 21.6896C12.052 21.3494 12.2431 20.8881 12.2431 20.407C12.2431 19.9259 12.052 19.4645 11.7118 19.1243C11.3717 18.7841 10.9103 18.593 10.4292 18.593C9.9481 18.593 9.48671 18.7841 9.14653 19.1243C8.80635 19.4645 8.61523 19.9259 8.61523 20.407C8.61523 20.8881 8.80635 21.3494 9.14653 21.6896C9.48671 22.0298 9.9481 22.2209 10.4292 22.2209ZM10.4292 29.4767C10.9103 29.4767 11.3717 29.2856 11.7118 28.9454C12.052 28.6053 12.2431 28.1439 12.2431 27.6628C12.2431 27.1817 12.052 26.7203 11.7118 26.3801C11.3717 26.0399 10.9103 25.8488 10.4292 25.8488C9.9481 25.8488 9.48671 26.0399 9.14653 26.3801C8.80635 26.7203 8.61523 27.1817 8.61523 27.6628C8.61523 28.1439 8.80635 28.6053 9.14653 28.9454C9.48671 29.2856 9.9481 29.4767 10.4292 29.4767Z" fill="#212121"/>
<path fill-rule="evenodd" clip-rule="evenodd" d="M10.4302 0C10.7911 0 11.1371 0.143334 11.3922 0.398471C11.6474 0.653608 11.7907 0.999647 11.7907 1.36047V2.74451C12.9915 2.72093 14.3139 2.72093 15.7687 2.72093H23.2295C24.6861 2.72093 26.0085 2.72093 27.2093 2.74451V1.36047C27.2093 0.999647 27.3526 0.653608 27.6078 0.398471C27.8629 0.143334 28.209 0 28.5698 0C28.9306 0 29.2766 0.143334 29.5318 0.398471C29.7869 0.653608 29.9302 0.999647 29.9302 1.36047V2.8606C30.4019 2.89688 30.8481 2.94223 31.2707 2.99847C33.3967 3.28507 35.1181 3.8873 36.4768 5.24414C37.8336 6.60279 38.4359 8.32423 38.7225 10.4502C39 12.5181 39 15.1574 39 18.4914V22.3225C39 25.6566 39 28.2977 38.7225 30.3638C38.4359 32.4897 37.8336 34.2112 36.4768 35.5698C35.1181 36.9267 33.3967 37.5289 31.2707 37.8155C29.2028 38.093 26.5635 38.093 23.2295 38.093H15.7705C12.4365 38.093 9.79535 38.093 7.72926 37.8155C5.6033 37.5289 3.88186 36.9267 2.52321 35.5698C1.16637 34.2112 0.56414 32.4897 0.277535 30.3638C0 28.2959 0 25.6566 0 22.3225V18.4914C0 15.1574 0 12.5163 0.277535 10.4502C0.56414 8.32423 1.16637 6.60279 2.52321 5.24414C3.88186 3.8873 5.6033 3.28507 7.72926 2.99847C8.15191 2.94223 8.59995 2.89688 9.06977 2.8606V1.36047C9.06977 0.999647 9.2131 0.653608 9.46824 0.398471C9.72338 0.143334 10.0694 0 10.4302 0ZM8.09023 5.69581C6.26721 5.9407 5.21512 6.40144 4.44781 7.16875C3.68051 7.93605 3.21977 8.98814 2.97488 10.813C2.93316 11.1213 2.8987 11.4479 2.86967 11.7907H36.1303C36.1013 11.446 36.0668 11.1214 36.0251 10.8112C35.7802 8.98814 35.3195 7.93605 34.5522 7.16875C33.7849 6.40144 32.7328 5.9407 30.908 5.69581C29.045 5.44549 26.5871 5.44186 23.1279 5.44186H15.8721C12.4129 5.44186 9.95679 5.44549 8.09023 5.69581ZM2.72093 18.593C2.72093 17.0439 2.72093 15.6961 2.74451 14.5116H36.2555C36.2791 15.6961 36.2791 17.0439 36.2791 18.593V22.2209C36.2791 25.6801 36.2754 28.1381 36.0251 30.0028C35.7802 31.8258 35.3195 32.8779 34.5522 33.6452C33.7849 34.4125 32.7328 34.8733 30.908 35.1181C29.045 35.3685 26.5871 35.3721 23.1279 35.3721H15.8721C12.4129 35.3721 9.95679 35.3685 8.09023 35.1181C6.26721 34.8733 5.21512 34.4125 4.44781 33.6452C3.68051 32.8779 3.21977 31.8258 2.97488 30.001C2.72456 28.138 2.72093 25.6801 2.72093 22.2209V18.593Z" fill="#212121"/>
</svg>
