<?xml version="1.0" encoding="utf-8"?>
<!-- Generator: Adobe Illustrator 23.1.0, SVG Export Plug-In . SVG Version: 6.00 Build 0)  -->
<svg version="1.1" id="Capa_1" xmlns="http://www.w3.org/2000/svg" xmlns:xlink="http://www.w3.org/1999/xlink" x="0px" y="0px"
	 viewBox="0 0 75 75" style="enable-background:new 0 0 75 75;" xml:space="preserve">
<style type="text/css">
	.st0{fill:#212121;fill-opacity:3.000000e-02;}
	.st1{fill:#212121;}
</style>
<path class="st0" d="M10,0h55c5.5,0,10,4.5,10,10v55c0,5.5-4.5,10-10,10H10C4.5,75,0,70.5,0,65V10C0,4.5,4.5,0,10,0z"/>
<g>
	<path class="st1" d="M50.3,49.3l-6.4-8c-0.2-0.2-0.6-0.5-1.2-0.5h-4.9v-3.4h6.5c0.9,0,1.5-0.6,1.5-1.5s-0.6-1.5-1.5-1.5h-6.5v-3.6
		c0.6-0.2,1.3-0.6,1.9-1.1c0.9-0.9,1.3-2,1.3-3.4c0-1.3-0.5-2.5-1.3-3.4c-0.9-0.9-2-1.3-3.4-1.3c-1.3,0-2.5,0.5-3.4,1.3
		c-0.9,0.9-1.3,2-1.3,3.4c0,1.3,0.5,2.5,1.3,3.4c0.5,0.5,1.1,0.9,1.9,1.1v11.5c0,0.9,0.6,1.5,1.5,1.5H42l6,7.5
		c0.2,0.2,0.6,0.5,1.2,0.5c0.3,0,0.6-0.1,0.8-0.3l0.1-0.1c0.4-0.3,0.6-0.7,0.6-1.1C50.7,49.9,50.5,49.5,50.3,49.3z M38,26.2
		c0,0.5-0.2,0.9-0.5,1.2c-0.6,0.6-1.9,0.5-2.4,0c-0.4-0.5-0.6-0.9-0.6-1.3c0-0.5,0.2-0.9,0.5-1.2c0.3-0.3,0.7-0.5,1.2-0.5
		c0.5,0,0.9,0.2,1.2,0.5C37.8,25.2,38,25.7,38,26.2z"/>
	<path class="st1" d="M40.5,47.2c-0.8-0.3-1.7-0.1-2.2,0.5l0,0c-0.6,0.9-1.6,1.6-2.2,1.9c-1.8,1-4.2,0.9-5.7,0.2
		c-1.1-0.6-1.8-1.1-2.3-1.9c-0.7-0.8-1.1-1.7-1.3-2.7c-0.2-1.1-0.2-2.1,0.1-3c0.3-1,0.8-1.9,1.4-2.6c0.7-0.8,1.6-1.4,2.4-1.8
		c0.4-0.2,0.7-0.5,0.9-0.9c0.1-0.4,0.1-0.8-0.1-1c-0.2-0.4-0.5-0.7-0.9-0.9c-0.4-0.1-0.8-0.1-1,0.1c-1.5,0.6-2.8,1.7-3.6,2.5
		c-1,1.1-1.7,2.5-2,3.9c-0.4,1.5-0.4,3.1-0.1,4.3c0.3,1.4,0.9,2.7,1.9,3.9c1,1.3,2.2,2.2,3.5,2.6c1.3,0.6,2.7,0.8,4,0.8h0.3
		c1.5,0,2.9-0.4,4.3-1.2c1.4-0.8,2.5-1.8,3.3-2.9c0.4-0.7,0.3-1.6-0.3-2.1L40.5,47.2z"/>
</g>
</svg>
