<svg width="32" height="21" viewBox="0 0 32 21" fill="none" xmlns="http://www.w3.org/2000/svg">
<path d="M31.9528 10.2593C31.9059 10.1545 30.7776 7.65379 28.2521 5.12828C25.9128 2.78897 21.8893 0 15.9997 0C10.11 0 6.08656 2.78897 3.74725 5.12828C1.22173 7.65379 0.0934581 10.1545 0.0465615 10.2593C0.0158484 10.33 0 10.4063 0 10.4834C0 10.5606 0.0158484 10.6369 0.0465615 10.7076C0.0934581 10.8138 1.22173 13.3131 3.74725 15.8386C6.09208 18.1834 10.1114 20.9655 15.9997 20.9655C21.8879 20.9655 25.9128 18.1779 28.2521 15.8386C30.7776 13.3131 31.9059 10.8138 31.9528 10.7076C31.9835 10.6369 31.9993 10.5606 31.9993 10.4834C31.9993 10.4063 31.9835 10.33 31.9528 10.2593ZM27.4424 15.0869C24.2604 18.2593 20.4079 19.8621 15.9941 19.8621C11.5804 19.8621 7.73346 18.2552 4.54587 15.0869C3.18958 13.7343 2.04895 12.1815 1.1638 10.4828C2.05059 8.78365 3.19311 7.23083 4.55139 5.87862C7.73898 2.71035 11.5859 1.10345 15.9997 1.10345C20.4135 1.10345 24.2604 2.71035 27.4479 5.87862C28.8061 7.23097 29.9486 8.78376 30.8355 10.4828C29.9487 12.1818 28.8062 13.7347 27.4479 15.0869H27.4424ZM15.9997 4.41379C14.7993 4.41379 13.626 4.76973 12.6279 5.4366C11.6299 6.10346 10.852 7.05131 10.3927 8.16027C9.93333 9.26922 9.81314 10.4895 10.0473 11.6668C10.2815 12.844 10.8595 13.9254 11.7083 14.7742C12.557 15.6229 13.6384 16.2009 14.8157 16.4351C15.9929 16.6693 17.2132 16.5491 18.3222 16.0898C19.4311 15.6304 20.379 14.8525 21.0458 13.8545C21.7127 12.8565 22.0686 11.6831 22.0686 10.4828C22.0668 8.87373 21.4268 7.33112 20.2891 6.19337C19.1513 5.05561 17.6087 4.41562 15.9997 4.41379ZM15.9997 15.4483C15.0176 15.4483 14.0575 15.1571 13.241 14.6114C12.4244 14.0658 11.788 13.2903 11.4121 12.383C11.0363 11.4756 10.938 10.4773 11.1296 9.51403C11.3212 8.55082 11.7941 7.66605 12.4885 6.97161C13.183 6.27717 14.0677 5.80425 15.0309 5.61265C15.9942 5.42106 16.9926 5.51939 17.8999 5.89522C18.8072 6.27105 19.5827 6.90749 20.1283 7.72407C20.674 8.54064 20.9652 9.50067 20.9652 10.4828C20.9652 11.7997 20.442 13.0627 19.5108 13.9939C18.5796 14.9251 17.3166 15.4483 15.9997 15.4483Z" fill="#212121" fill-opacity="0.25"/>
</svg>
