<svg width="111" height="129" viewBox="0 0 111 129" fill="none" xmlns="http://www.w3.org/2000/svg">
<path d="M93.5717 18.7317C91.2063 18.7283 88.8704 19.2581 86.736 20.2821V16.4433C86.7374 12.6253 85.3811 8.9324 82.9113 6.02998C80.4416 3.12756 77.0209 1.20651 73.2656 0.612999C69.5103 0.0194929 65.6675 0.792564 62.4295 2.7929C59.1916 4.79324 56.7714 7.8893 55.6053 11.5232C53.1764 10.2 50.4468 9.53328 47.6842 9.58834C44.9215 9.6434 42.2205 10.4183 39.8457 11.8372C37.471 13.2561 35.504 15.2703 34.1375 17.6824C32.7711 20.0945 32.052 22.8217 32.0508 25.5969V62.2116L29.8747 58.7046C27.7612 55.0414 24.2896 52.3675 20.2188 51.2673C16.1481 50.1672 11.8092 50.7304 8.15064 52.8337C4.49208 54.937 1.81139 58.4095 0.694518 62.492C-0.422353 66.5745 0.115434 70.9351 2.19033 74.6205C11.3045 93.9405 18.67 107.642 27.0949 116.207C35.6053 124.88 45.2664 128.576 59.3934 128.576C72.6836 128.561 85.4251 123.251 94.8227 113.813C104.22 104.375 109.506 91.5782 109.522 78.2305V34.7506C109.522 30.5021 107.841 26.4276 104.85 23.4235C101.859 20.4194 97.8018 18.7317 93.5717 18.7317ZM100.407 78.2305C100.395 89.1514 96.0703 99.6216 88.3813 107.344C80.6923 115.066 70.2673 119.41 59.3934 119.422C47.7842 119.422 40.3048 116.63 33.5717 109.782C26.0354 102.11 19.0972 89.1005 10.3475 70.5529C10.2963 70.4394 10.2392 70.3286 10.1767 70.221C9.27019 68.6438 9.02471 66.7695 9.49422 65.0105C9.96373 63.2514 11.1098 61.7518 12.6802 60.8414C14.2507 59.931 16.1169 59.6845 17.8683 60.156C19.6198 60.6275 21.113 61.7785 22.0194 63.3558C22.0426 63.4016 22.0693 63.4456 22.0992 63.4874L32.7343 80.6505C33.2568 81.4972 34.04 82.1495 34.965 82.5086C35.8901 82.8677 36.9066 82.9139 37.8602 82.6401C38.8138 82.3664 39.6524 81.7877 40.2489 80.9919C40.8453 80.1961 41.1669 79.2266 41.165 78.2305V25.5969C41.165 23.7761 41.8852 22.0299 43.1671 20.7425C44.449 19.455 46.1877 18.7317 48.0006 18.7317C49.8136 18.7317 51.5522 19.455 52.8342 20.7425C54.1161 22.0299 54.8363 23.7761 54.8363 25.5969V59.9232C54.8363 61.137 55.3164 62.3012 56.171 63.1595C57.0257 64.0178 58.1848 64.5 59.3934 64.5C60.602 64.5 61.7611 64.0178 62.6157 63.1595C63.4704 62.3012 63.9505 61.137 63.9505 59.9232V16.4433C63.9505 14.6225 64.6707 12.8763 65.9526 11.5888C67.2345 10.3013 68.9732 9.57801 70.7861 9.57801C72.5991 9.57801 74.3377 10.3013 75.6197 11.5888C76.9016 12.8763 77.6218 14.6225 77.6218 16.4433V59.9232C77.6218 61.137 78.1019 62.3012 78.9565 63.1595C79.8112 64.0178 80.9703 64.5 82.1789 64.5C83.3875 64.5 84.5466 64.0178 85.4013 63.1595C86.2559 62.3012 86.736 61.137 86.736 59.9232V34.7506C86.736 32.9298 87.4562 31.1836 88.7381 29.8961C90.0201 28.6086 91.7587 27.8853 93.5717 27.8853C95.3846 27.8853 97.1233 28.6086 98.4052 29.8961C99.6871 31.1836 100.407 32.9298 100.407 34.7506V78.2305Z" fill="#E93636" fill-opacity="0.9"/>
</svg>
