<svg width="27" height="26" viewBox="0 0 27 26" fill="none" xmlns="http://www.w3.org/2000/svg">
<g clip-path="url(#clip0_734_46)">
<path d="M26.5705 24.1849L20.1329 17.987C21.9988 15.8299 22.9292 13.0631 22.7306 10.2622C22.5321 7.46135 21.2198 4.842 19.0668 2.9491C16.9137 1.0562 14.0858 0.0354682 11.1711 0.0992547C8.25651 0.163041 5.47961 1.30643 3.41812 3.29157C1.35663 5.27671 0.169265 7.95075 0.103025 10.7574C0.0367854 13.5641 1.09677 16.2874 3.06248 18.3606C5.02819 20.4339 7.74827 21.6976 10.6569 21.8888C13.5655 22.08 16.4387 21.1841 18.6788 19.3873L25.1151 25.5865C25.2107 25.6785 25.3241 25.7515 25.449 25.8013C25.5738 25.8511 25.7077 25.8767 25.8428 25.8767C25.978 25.8767 26.1118 25.8511 26.2366 25.8013C26.3615 25.7515 26.475 25.6785 26.5705 25.5865C26.6661 25.4944 26.7419 25.3852 26.7936 25.265C26.8453 25.1447 26.8719 25.0159 26.8719 24.8857C26.8719 24.7556 26.8453 24.6267 26.7936 24.5065C26.7419 24.3862 26.6661 24.277 26.5705 24.1849ZM2.18566 11.019C2.18566 9.25596 2.72858 7.53247 3.74577 6.06653C4.76296 4.60058 6.20872 3.45801 7.90025 2.78331C9.59177 2.10861 11.4531 1.93208 13.2488 2.27604C15.0445 2.62 16.694 3.469 17.9886 4.71569C19.2832 5.96237 20.1649 7.55075 20.5221 9.27995C20.8793 11.0092 20.6959 12.8015 19.9953 14.4304C19.2946 16.0593 18.1081 17.4515 16.5858 18.431C15.0635 19.4105 13.2737 19.9333 11.4428 19.9333C8.98849 19.9307 6.63548 18.9907 4.90002 17.3195C3.16456 15.6483 2.18838 13.3825 2.18566 11.019Z" fill="#F9F9F9"/>
</g>
<defs>
<clipPath id="clip0_734_46">
<rect width="27" height="26" fill="white"/>
</clipPath>
</defs>
</svg>
