<svg width="70" height="67" viewBox="0 0 70 67" fill="none" xmlns="http://www.w3.org/2000/svg">
<path d="M34.1033 0.816986C34.4701 0.0737407 35.5299 0.0737401 35.8967 0.816986L45.9352 21.1572C46.0809 21.4524 46.3625 21.6569 46.6882 21.7043L69.135 24.966C69.9552 25.0852 70.2827 26.0931 69.6892 26.6717L53.4465 42.5044C53.2109 42.7341 53.1033 43.0651 53.1589 43.3895L56.9933 65.7456C57.1334 66.5625 56.276 67.1855 55.5424 66.7998L35.4653 56.2446C35.174 56.0915 34.826 56.0915 34.5347 56.2446L14.4576 66.7998C13.724 67.1855 12.8666 66.5625 13.0067 65.7456L16.8411 43.3895C16.8967 43.0651 16.7891 42.7341 16.5535 42.5044L0.310802 26.6717C-0.282715 26.0931 0.0447943 25.0852 0.865015 24.966L23.3118 21.7043C23.6375 21.6569 23.9191 21.4524 24.0648 21.1572L34.1033 0.816986Z" fill="#E93636" fill-opacity="0.9"/>
</svg>
